<?xml version="1.0" standalone="no"?>
<!DOCTYPE svg PUBLIC "-//W3C//DTD SVG 20010904//EN"
 "http://www.w3.org/TR/2001/REC-SVG-20010904/DTD/svg10.dtd">
<svg version="1.0" xmlns="http://www.w3.org/2000/svg"
 width="281.000000pt" height="281.000000pt" viewBox="0 0 281.000000 281.000000"
 preserveAspectRatio="xMidYMid meet">
<metadata>
Created by potrace 1.14, written by Peter Selinger 2001-2017
</metadata>
<g transform="translate(0.000000,281.000000) scale(0.100000,-0.100000)"
fill="#000000" stroke="none">
<path d="M414 2798 c-4 -6 3 -8 17 -4 13 3 18 3 11 0 -6 -3 -9 -11 -6 -16 4
-7 2 -8 -4 -4 -14 9 -15 -3 -2 -24 6 -9 5 -20 -3 -30 -10 -13 -10 -13 5 -2 9
7 18 9 20 5 3 -4 3 -2 2 5 -4 15 17 52 29 52 4 0 6 -4 3 -8 -3 -5 1 -9 9 -9
11 0 12 4 4 14 -7 8 -8 13 -1 13 5 0 15 -7 22 -15 7 -8 18 -15 24 -15 6 0 4 5
-4 10 -12 8 -11 10 6 10 11 0 26 -6 33 -12 11 -11 12 -10 6 0 -10 19 36 12 53
-8 10 -13 11 -12 5 5 -6 17 -4 18 8 8 12 -10 19 -10 35 1 10 7 28 16 39 19
l20 7 -20 -16 c-16 -14 -17 -16 -2 -11 10 4 17 1 17 -6 0 -8 3 -8 9 2 5 8 11
9 15 3 5 -9 57 -10 76 -2 3 1 9 2 13 1 5 -1 6 3 2 9 -9 15 8 12 31 -4 15 -12
23 -12 39 -2 11 7 29 16 40 19 l20 7 -20 -16 c-16 -14 -17 -16 -2 -11 10 4 17
1 17 -6 0 -8 3 -8 9 2 5 8 11 9 15 3 5 -9 57 -10 76 -2 3 1 9 2 13 1 5 -1 6 3
2 9 -9 15 8 12 31 -4 15 -12 23 -12 39 -2 11 7 29 16 40 19 l20 7 -20 -16
c-16 -14 -17 -16 -2 -11 10 4 17 1 17 -6 0 -8 3 -8 9 2 5 8 11 9 15 3 5 -9 57
-10 76 -2 3 1 9 2 13 1 5 -1 6 3 2 9 -9 15 8 12 31 -4 15 -12 23 -12 39 -2 11
7 29 16 40 19 l20 7 -20 -16 c-16 -14 -17 -16 -2 -11 10 4 17 1 17 -6 0 -8 3
-8 9 2 5 8 11 9 15 3 5 -9 57 -10 76 -2 3 1 9 2 13 1 5 -1 6 3 2 9 -9 15 8 12
31 -4 15 -12 23 -12 39 -2 11 7 29 16 40 19 l20 7 -20 -16 c-16 -14 -17 -16
-2 -11 10 4 17 1 17 -6 0 -8 3 -8 9 2 5 8 11 9 15 3 5 -9 57 -10 76 -2 3 1 9
2 13 1 5 -1 6 3 2 9 -9 15 8 12 31 -4 15 -12 23 -12 39 -2 11 7 29 16 40 19
l20 7 -20 -16 c-16 -14 -17 -16 -2 -11 10 4 17 1 17 -6 0 -8 3 -8 9 2 5 8 11
9 15 3 5 -9 57 -10 76 -2 3 1 9 2 13 1 5 -1 6 3 2 9 -9 15 8 12 31 -4 15 -12
23 -12 39 -2 11 7 29 16 40 19 l20 7 -20 -16 c-16 -14 -17 -16 -2 -11 10 4 17
1 17 -6 0 -8 3 -8 9 2 5 8 11 9 15 3 5 -9 57 -10 76 -2 3 1 9 2 13 1 5 -1 6 3
2 9 -9 15 7 12 31 -5 12 -8 24 -12 26 -9 3 2 17 -1 32 -7 20 -9 23 -15 14 -21
-10 -8 -10 -9 0 -6 8 2 13 7 12 12 -1 4 7 14 17 23 10 8 12 12 6 8 -7 -3 -13
-1 -13 5 0 6 -5 8 -10 5 -6 -4 -8 -11 -5 -16 4 -5 2 -9 -3 -9 -6 0 -12 7 -16
15 -3 8 -12 12 -20 9 -8 -3 -16 -2 -19 3 -3 4 6 9 19 9 13 1 24 -3 24 -8 0 -6
7 -4 17 3 9 8 17 12 19 9 1 -3 5 -3 8 0 2 3 -422 5 -944 5 -521 0 -946 -3
-944 -7 3 -5 0 -8 -5 -8 -6 0 -11 3 -11 8 0 11 -109 11 -116 0z m56 -6 c0 -5
-7 -17 -15 -28 -14 -18 -14 -17 -4 9 12 27 19 34 19 19z m120 2 c0 -8 -19 -13
-24 -6 -3 5 1 9 9 9 8 0 15 -2 15 -3z m94 -11 c-10 -7 -22 -9 -28 -4 -6 5 -19
7 -28 6 -10 -2 -20 0 -22 4 -3 4 18 7 45 6 42 0 47 -2 33 -12z m86 7 c0 -5 5
-10 11 -10 5 0 8 4 5 8 -2 4 11 8 30 8 22 0 30 -4 24 -10 -13 -13 -68 -17 -76
-5 -3 5 -10 6 -16 3 -7 -4 -8 -2 -4 4 9 15 26 16 26 2z m170 3 c0 -1 -9 -7
-19 -12 -14 -8 -22 -7 -29 2 -9 10 -4 13 19 12 16 0 29 -1 29 -2z m70 -3 c0
-5 5 -10 11 -10 5 0 8 4 5 8 -2 4 11 8 30 8 22 0 30 -4 24 -10 -13 -13 -68
-17 -76 -5 -3 5 -10 6 -16 3 -7 -4 -8 -2 -4 4 9 15 26 16 26 2z m170 3 c0 -1
-9 -7 -19 -12 -14 -8 -22 -7 -29 2 -9 10 -4 13 19 12 16 0 29 -1 29 -2z m70
-3 c0 -5 5 -10 11 -10 5 0 8 4 5 8 -2 4 11 8 30 8 22 0 30 -4 24 -10 -13 -13
-68 -17 -76 -5 -3 5 -10 6 -16 3 -7 -4 -8 -2 -4 4 9 15 26 16 26 2z m170 3 c0
-1 -9 -7 -19 -12 -14 -8 -22 -7 -29 2 -9 10 -4 13 19 12 16 0 29 -1 29 -2z
m70 -3 c0 -5 5 -10 11 -10 5 0 8 4 5 8 -2 4 11 8 30 8 22 0 30 -4 24 -10 -13
-13 -68 -17 -76 -5 -3 5 -10 6 -16 3 -7 -4 -8 -2 -4 4 9 15 26 16 26 2z m170
3 c0 -1 -9 -7 -19 -12 -14 -8 -22 -7 -29 2 -9 10 -4 13 19 12 16 0 29 -1 29
-2z m70 -3 c0 -5 5 -10 11 -10 5 0 8 4 5 8 -2 4 11 8 30 8 22 0 30 -4 24 -10
-13 -13 -68 -17 -76 -5 -3 5 -10 6 -16 3 -7 -4 -8 -2 -4 4 9 15 26 16 26 2z
m170 3 c0 -1 -9 -7 -19 -12 -14 -8 -22 -7 -29 2 -9 10 -4 13 19 12 16 0 29 -1
29 -2z m70 -3 c0 -5 5 -10 11 -10 5 0 8 4 5 8 -2 4 11 8 30 8 22 0 30 -4 24
-10 -13 -13 -68 -17 -76 -5 -3 5 -10 6 -16 3 -7 -4 -8 -2 -4 4 9 15 26 16 26
2z m170 3 c0 -1 -9 -7 -19 -12 -14 -8 -22 -7 -29 2 -9 10 -4 13 19 12 16 0 29
-1 29 -2z m70 -3 c0 -5 5 -10 11 -10 5 0 8 4 5 8 -2 4 11 8 30 8 22 0 30 -4
24 -10 -13 -13 -68 -17 -76 -5 -3 5 -10 6 -16 3 -7 -4 -8 -2 -4 4 9 15 26 16
26 2z m131 -7 c13 -16 12 -17 -3 -4 -10 7 -18 15 -18 17 0 8 8 3 21 -13z"/>
<path d="M2404 2715 c-10 -8 -14 -15 -9 -14 24 3 27 -2 9 -16 -19 -15 -19 -15
1 -8 20 6 20 6 0 -18 -18 -23 -18 -23 0 -6 11 9 20 31 20 47 0 17 0 30 0 30
-1 0 -10 -7 -21 -15z"/>
<path d="M430 2685 c0 -8 4 -15 8 -15 5 0 9 7 9 15 0 8 -4 15 -9 15 -4 0 -8
-7 -8 -15z"/>
<path d="M825 2639 c-4 -11 -9 -18 -13 -15 -3 3 -15 -2 -26 -11 -20 -18 -20
-17 -6 2 8 11 20 23 25 27 6 5 6 8 -2 8 -6 0 -14 -4 -17 -8 -6 -11 -36 -9 -56
3 -13 8 -13 6 0 -10 14 -17 13 -18 -17 -13 -27 4 -30 2 -23 -12 7 -13 4 -16
-13 -16 -17 1 -21 -4 -19 -20 2 -13 -4 -24 -14 -28 -15 -6 -15 -4 -3 11 13 17
12 17 -4 4 -10 -8 -16 -22 -14 -33 3 -10 1 -21 -4 -24 -5 -3 -6 -10 -3 -16 4
-7 2 -8 -5 -4 -9 6 -9 11 0 22 9 10 9 14 0 14 -6 0 -14 -7 -17 -15 -4 -8 -10
-12 -15 -9 -5 3 -9 -2 -9 -11 0 -10 5 -14 13 -10 6 4 1 -2 -12 -13 -15 -12
-21 -24 -16 -32 6 -10 4 -12 -8 -7 -9 3 -19 1 -23 -5 -4 -7 -3 -8 4 -4 7 4 12
2 12 -3 0 -6 -4 -12 -10 -12 -5 -1 -14 -3 -20 -4 -5 -1 -12 -3 -15 -4 -3 0 0
-11 6 -23 11 -20 10 -21 -3 -10 -21 17 -44 -8 -25 -28 10 -10 9 -12 -5 -7 -10
4 -17 3 -17 -1 4 -23 -3 -34 -17 -28 -13 5 -15 1 -12 -18 4 -19 1 -23 -11 -18
-14 5 -14 4 -2 -11 12 -15 12 -17 -3 -11 -12 5 -19 0 -23 -15 -3 -11 -10 -21
-15 -21 -5 0 -6 5 -2 12 4 7 3 8 -4 4 -13 -8 -5 -36 11 -36 6 0 7 -3 4 -6 -4
-4 -13 -1 -22 6 -12 10 -16 9 -21 -4 -3 -9 -4 -23 0 -31 4 -12 2 -13 -12 -6
-15 8 -18 6 -16 -18 1 -21 -3 -28 -15 -27 -10 1 -15 -6 -15 -17 2 -14 -1 -15
-12 -6 -10 8 -12 7 -9 -10 2 -12 -1 -21 -6 -21 -5 0 -9 -6 -7 -12 2 -7 -2 -13
-7 -13 -6 0 -9 6 -7 15 1 9 -2 7 -9 -5 -6 -11 -25 -35 -42 -52 -17 -18 -28
-33 -24 -33 4 0 3 -9 -3 -20 -6 -11 -16 -18 -21 -14 -8 4 -8 0 0 -13 11 -21 6
-33 -13 -33 -6 0 -4 5 4 10 13 8 13 10 -1 10 -14 0 -17 -13 -18 -84 -1 -46 2
-91 5 -100 6 -15 8 -15 20 1 7 10 14 14 14 8 0 -5 4 -4 9 4 6 9 11 10 15 2 4
-6 3 -11 -3 -11 -6 0 -8 -7 -4 -16 5 -13 9 -10 19 12 7 16 13 23 13 16 1 -7 5
-11 10 -7 5 3 16 -1 24 -10 13 -13 16 -13 21 1 3 8 10 13 15 10 5 -4 11 -3 14
1 2 5 2 3 1 -4 -2 -6 4 -14 12 -17 9 -3 12 -11 8 -17 -4 -8 -3 -9 5 -5 6 4 8
12 5 18 -5 7 -1 9 9 5 9 -3 19 -1 23 5 5 7 2 8 -6 3 -9 -5 -11 -4 -6 4 4 6 11
9 16 6 4 -3 10 0 12 7 3 9 6 9 12 0 4 -7 2 -12 -3 -12 -6 0 -11 -8 -11 -17 0
-13 6 -9 20 12 11 17 20 24 20 16 0 -8 3 -11 6 -8 4 3 15 2 25 -3 12 -7 20 -7
24 0 4 6 11 8 16 5 5 -4 9 -1 9 6 0 9 3 9 14 0 11 -9 15 -9 20 1 3 7 4 4 1 -7
-4 -16 0 -21 17 -22 17 -2 19 0 8 7 -8 5 -12 12 -8 15 3 3 12 -1 21 -9 8 -8
17 -13 19 -11 3 3 5 -2 5 -10 0 -9 -6 -14 -13 -11 -13 5 -13 -19 1 -31 4 -4 5
-1 0 7 -6 12 -5 13 5 3 12 -11 11 -15 -5 -26 -14 -11 -15 -16 -5 -22 9 -6 11
-4 5 6 -5 8 -4 11 1 6 14 -13 12 -57 -2 -57 -7 0 -16 -5 -20 -12 -5 -7 -3 -8
5 -4 8 5 12 3 10 -5 -3 -26 1 -39 12 -39 8 0 8 4 0 14 -9 11 -9 16 1 22 7 4
10 4 6 -1 -4 -4 -3 -14 3 -22 9 -10 8 -17 -2 -30 -13 -15 -12 -15 8 -3 12 8
19 19 15 25 -3 5 3 3 13 -5 17 -14 18 -13 12 5 -7 19 -6 19 10 -1 12 -14 26
-20 41 -18 15 3 21 0 17 -7 -4 -6 1 -5 13 2 11 7 18 19 15 26 -3 7 2 13 11 13
9 0 16 5 16 11 0 5 -6 7 -12 3 -10 -6 -10 -4 0 7 15 16 16 33 0 23 -7 -4 -8
-3 -4 5 4 6 12 9 17 6 5 -4 9 1 9 10 0 9 -4 14 -9 11 -4 -3 -8 11 -7 32 2 24
7 37 17 37 8 1 13 6 12 12 -1 6 9 21 23 34 14 13 25 20 24 14 -5 -25 2 -34 28
-33 44 1 54 -1 47 -12 -3 -5 -1 -10 4 -10 6 0 11 -5 11 -11 0 -5 -4 -8 -8 -5
-5 3 -9 -1 -9 -8 0 -8 7 -13 16 -11 24 4 40 -13 33 -37 -4 -16 -2 -19 8 -13
10 6 12 3 8 -13 -5 -19 -3 -20 13 -12 15 9 20 6 25 -16 5 -19 11 -24 25 -21
12 3 17 1 12 -6 -4 -6 0 -8 10 -4 9 3 19 1 23 -5 4 -6 3 -8 -4 -4 -6 3 -13 2
-16 -3 -7 -11 13 -9 33 3 10 6 12 5 7 -2 -4 -7 -1 -12 6 -12 9 0 9 -3 -2 -10
-8 -5 -10 -10 -4 -10 5 0 16 6 23 13 8 7 11 7 8 1 -4 -7 2 -14 13 -17 11 -3
18 -2 15 2 -2 4 2 8 9 8 8 0 12 -7 9 -16 -4 -13 -2 -13 10 2 15 18 28 23 26
10 -3 -20 2 -26 11 -13 9 13 11 13 20 0 7 -11 10 -11 10 -2 0 7 4 11 9 8 5 -4
12 0 14 6 3 8 6 6 6 -5 1 -10 6 -15 11 -12 6 4 8 10 6 14 -3 4 8 7 24 7 16 0
27 -3 25 -6 -2 -4 3 -7 11 -7 8 0 13 6 10 13 -3 8 0 16 6 20 6 4 8 3 4 -4 -3
-6 -2 -13 4 -17 9 -5 15 15 11 38 -1 5 3 6 9 2 6 -3 8 -10 5 -15 -6 -9 10 -7
37 5 10 4 15 11 12 16 -3 5 2 9 10 9 9 0 15 3 15 8 -3 18 2 22 20 12 17 -8 19
-7 16 15 -2 20 0 23 12 14 11 -9 12 -8 7 5 -3 9 -1 16 5 16 6 0 11 8 11 18 1
15 2 15 16 -3 16 -20 16 -19 9 4 -5 16 -4 21 4 17 6 -4 11 -2 11 3 0 6 -5 11
-12 11 -6 0 -8 3 -4 8 4 4 12 7 17 7 5 0 9 5 10 10 0 6 6 16 11 23 9 11 13 11
19 0 6 -9 9 -9 9 -1 0 6 -4 14 -10 18 -5 3 -7 12 -3 20 3 9 -1 15 -8 16 -8 0
-5 4 6 9 11 5 14 9 6 9 -10 1 -10 6 4 27 9 14 14 28 11 32 -3 3 -6 0 -6 -6 0
-7 -5 -12 -10 -12 -7 0 -7 6 -1 18 5 9 10 19 12 22 1 3 -4 16 -11 30 -12 22
-11 24 2 13 12 -10 15 -10 15 2 0 8 -5 15 -10 15 -5 0 -3 8 4 17 10 11 10 14
2 9 -14 -8 -18 6 -6 18 11 10 11 46 0 39 -6 -4 -8 3 -5 15 4 12 3 20 -2 17 -4
-3 -11 2 -14 11 -3 8 -2 12 4 9 5 -3 8 3 7 14 -1 12 -6 17 -17 13 -13 -5 -13
-4 0 13 9 11 10 16 2 11 -13 -8 -45 17 -35 28 4 3 2 6 -3 6 -5 0 -20 10 -34
21 l-25 21 26 -15 c21 -12 26 -13 26 -2 0 8 -3 13 -6 12 -13 -3 -51 15 -51 23
0 5 -7 6 -17 3 -11 -4 -14 -3 -9 5 4 7 1 12 -9 12 -9 0 -14 -4 -11 -8 3 -5 -1
-9 -9 -9 -8 0 -12 4 -9 8 2 4 -5 7 -16 6 -11 -1 -20 -6 -20 -12 0 -5 -5 -2
-11 8 -11 19 -34 24 -23 5 3 -7 -5 0 -18 16 -21 24 -26 26 -31 13 -3 -9 -1
-19 5 -23 7 -4 8 -3 4 4 -4 7 -2 12 3 12 6 0 11 -7 11 -15 0 -10 -8 -13 -32
-9 -18 3 -38 6 -44 6 -6 1 -11 7 -11 14 0 7 11 11 24 9 13 -1 23 2 23 6 0 5
-8 9 -18 9 -24 0 -32 8 -25 26 3 9 13 12 27 9 11 -4 17 -3 11 2 -17 13 -17 36
-1 30 10 -4 13 -1 10 8 -3 8 -13 12 -22 9 -9 -2 -5 2 11 9 29 14 28 30 -1 20
-11 -3 -13 -2 -6 4 6 4 14 16 17 27 5 13 15 17 36 14 20 -3 27 0 24 8 -2 7 1
15 8 20 7 4 10 3 5 -4 -3 -6 -1 -14 5 -18 6 -3 15 0 20 7 5 8 9 9 9 3 0 -7 7
-15 16 -18 12 -5 15 -2 10 11 -6 14 -4 14 15 -3 22 -19 22 -19 16 1 -7 20 -7
20 8 1 15 -20 15 -20 15 0 0 13 3 15 8 6 5 -7 17 -10 28 -6 16 5 17 4 4 -6
-13 -10 -13 -11 1 -7 9 3 22 0 29 -6 10 -9 11 -9 6 0 -4 8 6 12 35 11 43 0 63
15 54 41 -5 11 -3 12 10 1 13 -11 14 -10 9 5 -6 14 -4 16 7 11 8 -4 5 0 -6 10
-20 16 -20 16 3 11 12 -3 20 -1 17 3 -3 5 -2 10 2 13 5 2 2 2 -4 1 -7 -2 -13
1 -13 6 0 6 5 10 12 10 6 0 3 7 -8 16 -10 8 -13 12 -5 8 17 -8 30 12 23 38 -3
11 -10 17 -19 14 -8 -3 -12 -2 -9 3 8 12 -47 19 -73 9 -13 -4 -20 -4 -17 1 3
5 -11 7 -31 6 -22 -2 -41 1 -45 8 -5 8 -8 5 -8 -8 0 -17 -2 -17 -10 -5 -8 12
-10 12 -10 1 0 -11 -3 -11 -15 -1 -12 10 -15 10 -16 -1 0 -8 -4 -5 -9 6 -5 11
-9 14 -9 6 -1 -8 -8 -11 -21 -8 -11 3 -23 1 -26 -4 -3 -5 -13 -5 -25 1 -14 8
-19 7 -19 -1 0 -9 -3 -9 -14 0 -9 7 -17 8 -20 2 -6 -10 -24 -10 -41 1 -6 4
-17 3 -25 -2 -9 -5 -19 -5 -27 2 -9 7 -13 7 -13 -2 0 -9 -4 -9 -13 -2 -8 7
-18 6 -32 -5 -16 -13 -17 -15 -2 -10 9 4 17 2 17 -3 0 -6 -4 -10 -9 -10 -5 0
-8 -11 -5 -25 2 -14 0 -25 -6 -25 -6 0 -8 5 -4 12 4 7 3 8 -5 4 -6 -4 -9 -11
-6 -16 3 -5 1 -11 -5 -15 -13 -8 -13 -25 1 -25 5 0 8 4 4 9 -3 5 -1 12 4 15 5
4 8 0 7 -8 -2 -14 -37 -53 -44 -48 -2 2 -7 0 -10 -4 -4 -4 -2 -4 4 -1 7 4 17
0 24 -8 11 -13 10 -14 -3 -9 -12 4 -15 0 -13 -21 3 -20 0 -25 -12 -20 -12 4
-13 3 -2 -10 10 -12 10 -15 -1 -15 -12 0 -12 -2 0 -9 9 -6 10 -14 4 -26 -5 -9
-13 -16 -16 -16 -26 4 -27 -2 -6 -20 l24 -21 -30 8 c-28 7 -29 7 -12 -10 20
-21 22 -27 4 -20 -8 3 -14 -2 -14 -10 0 -8 5 -12 11 -9 6 4 2 -4 -9 -17 -11
-13 -15 -20 -9 -17 7 4 14 0 17 -8 4 -9 1 -12 -7 -9 -8 3 -17 1 -21 -5 -6 -10
8 -16 28 -12 5 1 5 -3 2 -9 -4 -6 -12 -9 -19 -7 -6 3 -20 -1 -29 -8 -15 -11
-16 -13 -2 -19 15 -5 22 -27 8 -25 -22 4 -24 -3 -8 -27 16 -25 16 -25 -5 -14
-18 10 -21 10 -14 -2 5 -7 9 -22 9 -33 0 -15 6 -19 24 -17 18 2 21 -1 13 -10
-8 -10 -5 -13 13 -13 19 0 21 3 12 14 -10 12 -9 12 10 3 12 -7 25 -17 28 -22
4 -6 11 -8 16 -5 5 4 9 1 9 -6 0 -7 7 -4 16 7 14 18 15 18 9 -6 -7 -24 -6 -24
20 5 15 17 24 25 21 19 -3 -7 1 -15 10 -18 23 -9 31 -7 15 3 -19 12 -4 33 21
29 12 -2 23 3 25 12 4 12 3 12 -5 2 -8 -11 -10 -11 -15 0 -3 10 4 14 29 13 19
-1 37 -5 42 -10 4 -5 1 -5 -7 0 -9 5 -12 4 -8 -3 4 -5 18 -9 32 -7 22 2 23 0
13 -13 -11 -13 -10 -14 9 -3 19 10 22 9 17 -4 -4 -9 -3 -15 2 -14 23 4 33 -2
27 -18 -5 -12 -3 -14 7 -8 10 6 12 4 7 -8 -4 -10 -2 -17 4 -17 6 0 9 -9 6 -20
-3 -11 -1 -23 4 -26 6 -4 6 -11 0 -18 -6 -7 -8 -16 -4 -19 3 -4 0 -14 -8 -24
-12 -15 -12 -16 1 -8 13 8 13 7 1 -8 -9 -11 -10 -17 -2 -17 6 0 11 -5 11 -11
0 -6 -7 -8 -16 -5 -15 6 -15 4 -3 -11 9 -11 10 -14 2 -9 -8 4 -13 2 -13 -4 0
-7 -7 -9 -16 -6 -8 3 -12 2 -9 -3 3 -5 1 -13 -5 -16 -8 -5 -7 -12 2 -23 10
-12 10 -14 1 -8 -8 4 -13 2 -13 -4 0 -6 -4 -9 -9 -5 -5 3 -12 1 -16 -5 -3 -5
-11 -10 -16 -10 -6 0 -7 6 -3 13 5 7 1 7 -10 -2 -14 -12 -22 -12 -36 -3 -13 8
-21 8 -25 1 -5 -7 -11 -6 -20 1 -10 8 -15 8 -21 -1 -5 -8 -3 -9 6 -4 9 6 11 4
5 -5 -6 -9 -4 -11 5 -5 9 5 11 4 6 -4 -5 -8 -15 -6 -33 9 -14 11 -33 20 -41
20 -8 0 -13 3 -9 6 3 3 -3 15 -14 27 -10 11 -19 27 -19 36 0 8 -3 11 -6 8 -4
-3 -15 -2 -25 3 -12 7 -19 6 -22 -3 -4 -7 -6 -6 -6 5 -1 14 -5 14 -26 5 -14
-7 -25 -16 -25 -20 0 -5 6 -5 13 -1 9 5 9 4 0 -6 -14 -15 -57 -25 -49 -12 3 5
-1 9 -9 9 -11 0 -12 -5 -3 -21 10 -19 10 -20 -7 -6 -10 8 -20 14 -22 12 -2 -1
-11 4 -19 13 -12 11 -12 15 -2 15 8 0 9 3 3 8 -16 11 -18 35 -2 29 16 -6 16
24 0 45 -16 22 -26 45 -10 26 17 -22 24 -23 24 -4 0 8 -3 15 -6 14 -3 0 -8 0
-11 2 -24 9 -55 8 -69 -2 -15 -12 -15 -11 -1 6 14 18 13 19 -2 13 -10 -3 -22
1 -30 11 -9 11 -10 14 0 8 8 -4 12 -1 12 9 0 12 5 15 18 11 15 -5 14 -4 -2 9
-10 8 -24 11 -30 8 -6 -4 -2 3 8 15 21 25 36 31 16 7 -9 -10 -9 -15 -1 -15 10
0 13 7 10 26 0 4 5 11 13 16 10 7 8 8 -6 6 -10 -2 -21 3 -23 10 -3 8 1 10 12
5 15 -5 16 -3 5 18 -11 20 -11 22 1 12 12 -9 14 -5 15 23 1 22 -2 31 -10 27
-6 -4 -5 1 2 10 8 9 12 29 11 46 -2 18 4 38 16 52 15 18 16 20 3 10 -21 -16
-24 -1 -6 32 10 20 10 21 -5 8 -21 -17 -22 -8 -1 13 12 12 12 16 2 16 -11 0
-11 2 0 9 17 10 23 60 8 57 -6 -2 -8 -1 -3 1 4 3 4 9 1 15 -4 5 4 4 17 -2 24
-13 24 -13 5 9 -11 11 -16 21 -11 21 4 0 1 8 -6 18 -11 14 -11 15 1 5 21 -19
35 -16 19 4 -8 10 -9 14 -2 10 6 -4 14 -3 18 3 3 5 0 10 -8 10 -10 0 -13 7
-10 20 3 11 10 17 16 13 6 -4 7 -1 1 8 -15 25 -14 41 4 34 16 -6 16 -5 0 11
-13 13 -14 21 -5 35 9 15 8 21 -8 34 -20 15 -20 15 0 9 15 -4 13 -1 -5 9 -18
11 -27 12 -32 4 -5 -8 -8 -6 -8 5 0 9 5 18 12 20 9 3 9 6 1 11 -7 4 -14 -1
-18 -14z m860 -79 c3 -5 1 -10 -4 -10 -6 0 -11 5 -11 10 0 6 2 10 4 10 3 0 8
-4 11 -10z m-1195 -210 c0 -5 -5 -10 -11 -10 -5 0 -7 5 -4 10 3 6 8 10 11 10
2 0 4 -4 4 -10z m595 -58 c-3 -3 -11 0 -18 7 -9 10 -8 11 6 5 10 -3 15 -9 12
-12z m-480 -94 c4 0 12 6 17 14 7 9 8 5 3 -12 -11 -44 -12 -70 -4 -64 5 3 9 1
9 -5 0 -5 -4 -12 -8 -15 -6 -4 -8 -61 -2 -61 1 0 3 -8 5 -18 2 -9 -1 -15 -6
-11 -5 3 -7 9 -5 13 3 4 -1 8 -9 8 -11 0 -12 -4 -4 -13 11 -14 9 -35 -6 -47
-6 -5 -4 -7 5 -4 8 2 14 11 12 18 -2 8 0 10 4 6 11 -11 14 -38 4 -32 -5 3 -7
-12 -6 -33 2 -27 -2 -39 -11 -39 -7 0 -13 5 -12 11 1 6 1 18 0 26 -1 13 -2 13
-11 0 -6 -10 -4 -22 6 -39 9 -13 11 -21 6 -17 -6 3 -13 2 -17 -4 -3 -5 -19 -7
-35 -3 -18 3 -36 0 -45 -7 -13 -11 -14 -10 -10 2 4 9 0 15 -9 15 -8 0 -13 -4
-11 -8 3 -4 -2 -10 -11 -13 -8 -3 -13 -2 -10 3 3 5 -1 12 -10 15 -9 4 -13 2
-8 -5 4 -7 1 -10 -7 -7 -8 3 -13 10 -12 15 1 5 -5 10 -12 10 -11 0 -12 -4 -4
-13 10 -13 -6 -32 -18 -20 -4 3 0 6 7 6 8 0 3 8 -10 20 -13 11 -18 20 -12 20
7 0 12 7 12 15 0 8 5 15 11 15 5 0 7 -6 3 -12 -6 -10 -3 -9 8 0 9 8 14 20 11
28 -3 10 0 12 10 8 8 -3 18 0 23 7 4 7 3 10 -4 5 -6 -3 -13 -2 -17 4 -3 5 -1
10 5 10 6 0 8 5 4 11 -4 8 0 8 15 0 12 -7 21 -8 20 -4 -4 22 2 34 14 27 6 -4
4 2 -6 13 -17 20 -17 20 8 18 21 -3 23 -1 15 15 -9 16 -7 18 11 15 18 -4 20 0
16 21 -2 13 0 27 6 31 6 3 7 1 3 -5 -4 -7 -2 -12 4 -12 8 0 23 25 35 60 10 31
19 40 25 30 4 -6 11 -12 15 -12z m30 -28 c-3 -5 -1 -10 6 -10 7 0 10 -3 6 -6
-9 -9 -28 6 -22 17 4 5 8 9 11 9 3 0 2 -4 -1 -10z m400 -58 c-6 -7 -34 11 -29
19 3 5 11 3 19 -4 7 -6 12 -13 10 -15z m-220 -42 c3 -6 -1 -7 -9 -4 -18 7 -21
14 -7 14 6 0 13 -4 16 -10z m515 -44 c0 -3 -4 -8 -10 -11 -5 -3 -10 -1 -10 4
0 6 5 11 10 11 6 0 10 -2 10 -4z m-1125 -49 c-8 -13 -13 -26 -10 -28 2 -3 -5
-5 -16 -6 -17 -2 -17 1 8 28 34 35 39 37 18 6z m905 9 c0 -3 -4 -8 -10 -11 -5
-3 -10 -1 -10 4 0 6 5 11 10 11 6 0 10 -2 10 -4z m-20 -261 c11 -13 10 -14 -4
-9 -9 3 -16 10 -16 15 0 13 6 11 20 -6z m-207 -26 c-9 -9 -12 -7 -10 9 1 14 5
18 11 12 7 -7 6 -14 -1 -21z m-581 -1 c-7 -7 -12 -8 -12 -2 0 14 12 26 19 19
2 -3 -1 -11 -7 -17z m546 6 c-1 -5 -9 -9 -16 -10 -10 -2 -11 1 -1 12 12 14 24
13 17 -2z m532 6 c-8 -5 -19 -10 -25 -10 -5 0 -3 5 5 10 8 5 20 10 25 10 6 0
3 -5 -5 -10z m205 -20 c-8 -9 -12 -20 -8 -24 4 -4 0 -4 -10 0 -16 6 -16 7 -1
19 9 6 14 17 10 23 -5 8 -1 10 9 6 14 -6 14 -8 0 -24z m-337 -33 c8 -10 6 -13
-9 -13 -19 0 -24 7 -12 19 8 9 9 9 21 -6z m167 -146 c3 -5 2 -12 -3 -15 -5 -3
-9 1 -9 9 0 17 3 19 12 6z m-721 -17 c5 -14 4 -15 -9 -4 -17 14 -19 20 -6 20
5 0 12 -7 15 -16z m-30 -2 c3 -5 -1 -9 -9 -9 -8 0 -12 4 -9 9 3 4 7 8 9 8 2 0
6 -4 9 -8z"/>
<path d="M575 2190 c-3 -5 -1 -10 4 -10 6 0 11 5 11 10 0 6 -2 10 -4 10 -3 0
-8 -4 -11 -10z"/>
<path d="M555 1890 c-3 -5 -1 -10 4 -10 6 0 11 5 11 10 0 6 -2 10 -4 10 -3 0
-8 -4 -11 -10z"/>
<path d="M436 2615 c-3 -8 -1 -15 4 -15 6 0 10 7 10 15 0 8 -2 15 -4 15 -2 0
-6 -7 -10 -15z"/>
<path d="M2400 2610 c20 -13 33 -13 25 0 -3 6 -14 10 -23 10 -15 0 -15 -2 -2
-10z"/>
<path d="M417 2589 c7 -9 10 -19 6 -22 -3 -4 -1 -7 5 -7 17 0 15 16 -5 31 -16
12 -17 12 -6 -2z"/>
<path d="M2398 2583 c7 -3 16 -2 19 1 4 3 -2 6 -13 5 -11 0 -14 -3 -6 -6z"/>
<path d="M2412 2565 c-21 -11 -22 -13 -5 -20 17 -7 17 -8 -2 -15 -17 -7 -18
-9 -2 -9 16 -1 16 -3 1 -26 -16 -24 -16 -25 1 -18 12 4 16 3 11 -5 -3 -6 -2
-13 3 -16 10 -7 9 13 -2 31 -4 6 -3 14 2 18 5 3 8 15 6 27 -3 12 0 27 6 35 13
15 12 15 -19 -2z"/>
<path d="M434 2542 c3 -5 0 -13 -6 -15 -10 -4 -10 -6 0 -6 7 -1 11 -5 8 -10
-3 -5 2 -15 12 -22 15 -13 16 -12 4 3 -10 13 -10 17 0 21 11 4 10 6 0 6 -7 1
-11 5 -7 10 3 5 0 13 -6 17 -7 4 -9 3 -5 -4z"/>
<path d="M434 2472 c3 -5 0 -13 -6 -15 -10 -4 -10 -6 -1 -6 7 -1 10 -8 6 -18
-3 -10 -3 -15 1 -12 12 11 15 48 4 55 -6 4 -8 3 -4 -4z"/>
<path d="M2400 2441 c13 -10 13 -12 0 -22 -13 -9 -13 -10 0 -6 8 2 15 10 15
17 0 7 -7 15 -15 17 -13 4 -13 3 0 -6z"/>
<path d="M1650 2409 c0 -5 5 -7 10 -4 6 3 10 8 10 11 0 2 -4 4 -10 4 -5 0 -10
-5 -10 -11z"/>
<path d="M2404 2395 c-10 -8 -14 -15 -9 -14 24 3 27 -2 9 -16 -19 -15 -19 -15
1 -8 20 6 20 6 0 -18 -18 -23 -18 -23 0 -6 11 9 20 31 20 47 0 17 0 30 0 30
-1 0 -10 -7 -21 -15z"/>
<path d="M2400 2290 c20 -13 33 -13 25 0 -3 6 -14 10 -23 10 -15 0 -15 -2 -2
-10z"/>
<path d="M2398 2263 c7 -3 16 -2 19 1 4 3 -2 6 -13 5 -11 0 -14 -3 -6 -6z"/>
<path d="M2412 2245 c-21 -11 -22 -13 -5 -20 17 -7 17 -8 -2 -15 -17 -7 -18
-9 -2 -9 16 -1 16 -3 1 -26 -16 -24 -16 -25 1 -18 12 4 16 3 11 -5 -3 -6 -2
-13 3 -16 10 -7 9 13 -2 31 -4 6 -3 14 2 18 5 3 8 15 6 27 -3 12 0 27 6 35 13
15 12 15 -19 -2z"/>
<path d="M1346 2228 c4 -5 12 -7 19 -4 8 3 16 -3 19 -12 4 -13 4 -13 3 2 -1
12 -10 20 -24 21 -12 1 -20 -2 -17 -7z"/>
<path d="M2400 2121 c13 -10 13 -12 0 -22 -13 -9 -13 -10 0 -6 8 2 15 10 15
17 0 7 -7 15 -15 17 -13 4 -13 3 0 -6z"/>
<path d="M2404 2075 c-10 -8 -14 -15 -9 -14 24 3 27 -2 9 -16 -19 -15 -19 -15
1 -8 20 6 20 6 0 -18 -18 -23 -18 -23 0 -6 11 9 20 31 20 47 0 17 0 30 0 30
-1 0 -10 -7 -21 -15z"/>
<path d="M2400 1970 c20 -13 33 -13 25 0 -3 6 -14 10 -23 10 -15 0 -15 -2 -2
-10z"/>
<path d="M2398 1943 c7 -3 16 -2 19 1 4 3 -2 6 -13 5 -11 0 -14 -3 -6 -6z"/>
<path d="M2412 1925 c-21 -11 -22 -13 -5 -20 17 -7 17 -8 -2 -15 -17 -7 -18
-9 -2 -9 16 -1 16 -3 1 -26 -13 -20 -13 -24 -2 -20 9 4 14 -2 15 -14 1 -14 -3
-18 -15 -14 -14 4 -14 3 -2 -5 26 -19 38 11 17 45 -4 6 -3 14 2 18 5 3 8 15 6
27 -3 12 0 27 6 35 13 15 12 15 -19 -2z"/>
<path d="M1726 1741 c-4 -5 -2 -12 3 -15 5 -4 12 -2 15 3 4 5 2 12 -3 15 -5 4
-12 2 -15 -3z"/>
<path d="M2550 1747 c0 -2 6 -10 14 -16 11 -9 16 -9 22 1 4 7 4 10 -1 6 -4 -4
-14 -3 -22 3 -7 6 -13 9 -13 6z"/>
<path d="M1981 1719 c-8 -18 -10 -20 -10 -6 -1 10 -6 15 -11 12 -6 -4 -8 -10
-5 -15 3 -5 -6 -17 -20 -26 -14 -9 -23 -19 -20 -22 2 -3 -1 -12 -8 -20 -8 -11
-8 -14 0 -9 6 4 14 3 18 -3 3 -5 0 -10 -8 -10 -8 0 -17 -6 -20 -13 -3 -8 1
-14 9 -14 7 0 11 4 8 9 -3 4 2 5 10 2 23 -9 20 -12 -24 -24 -36 -10 -39 -12
-25 -26 16 -16 12 -34 -8 -34 -7 0 -6 4 3 10 9 6 10 10 3 10 -17 0 -25 -17
-13 -25 8 -5 7 -11 -1 -21 -13 -16 1 -19 19 -4 6 6 10 7 7 4 -3 -4 1 -14 8
-23 11 -14 10 -14 -5 -2 -12 9 -18 10 -18 2 0 -6 5 -12 10 -12 6 -1 16 -2 23
-3 21 -4 28 5 16 20 -9 11 -8 14 4 14 9 0 14 6 11 13 -6 16 47 19 58 3 3 -5
17 -11 30 -13 17 -2 19 -1 8 6 -8 5 -18 7 -24 4 -5 -3 -6 -1 -2 6 6 9 13 8 31
-3 14 -10 25 -12 29 -5 2 5 3 4 2 -2 -1 -7 -10 -13 -20 -15 -10 -1 -21 -6 -24
-10 -4 -4 1 -4 10 -1 19 7 35 -8 18 -16 -6 -3 -5 -4 2 -2 7 1 12 8 11 14 -2 6
4 11 13 11 9 0 12 -5 8 -12 -6 -10 -4 -10 8 0 11 9 18 10 23 2 3 -5 1 -10 -4
-10 -6 0 -11 -5 -11 -12 0 -6 8 -3 20 7 11 10 17 21 15 26 -3 4 -1 10 5 14 9
5 14 -7 11 -27 0 -3 7 -5 17 -3 9 1 24 -3 32 -9 13 -10 13 -9 0 8 -14 18 -13
18 10 11 23 -6 23 -6 7 7 -17 13 -17 14 3 36 11 12 17 22 12 22 -13 0 -42 -34
-42 -50 0 -7 -3 -10 -7 -6 -9 9 -12 67 -4 81 9 16 10 35 1 30 -4 -3 -7 3 -6
12 0 9 -5 18 -11 20 -7 3 -13 0 -13 -7 0 -6 5 -8 11 -4 7 4 10 1 7 -7 -3 -8
-11 -13 -17 -11 -17 3 -13 -15 5 -22 13 -5 14 -9 4 -21 -7 -8 -16 -12 -21 -10
-4 3 -6 -5 -4 -18 4 -20 1 -23 -24 -22 -16 0 -27 3 -24 7 2 5 0 8 -5 8 -5 0
-9 7 -9 15 0 13 2 13 17 0 19 -18 30 -19 30 -4 0 5 -4 8 -8 5 -11 -7 -42 30
-42 50 0 8 5 12 11 9 6 -4 5 2 -2 13 -7 12 -17 18 -23 15 -5 -4 -7 1 -3 11 5
11 3 15 -5 10 -8 -5 -9 -2 -5 10 4 10 3 15 -3 11 -8 -5 -14 14 -12 36 1 4 -8
15 -18 24 -19 17 -20 17 -29 -6z m30 -6 c13 -16 12 -17 -3 -4 -10 7 -18 15
-18 17 0 8 8 3 21 -13z m13 -49 c3 -8 2 -12 -4 -9 -6 3 -10 10 -10 16 0 14 7
11 14 -7z m-89 -3 c3 -5 2 -12 -3 -15 -5 -3 -9 1 -9 9 0 17 3 19 12 6z m102
-35 c0 -9 -7 -12 -16 -8 -12 4 -11 0 4 -17 11 -12 15 -22 10 -21 -21 5 -36 0
-30 -10 3 -5 1 -10 -4 -10 -6 0 -11 5 -11 10 0 6 -5 10 -11 10 -5 0 -8 -4 -5
-8 3 -5 -1 -9 -8 -9 -7 0 -13 6 -13 13 0 7 4 11 8 8 4 -2 10 0 14 6 4 6 10 8
15 5 5 -3 11 -1 14 4 4 5 -6 8 -21 6 -25 -2 -26 -2 -9 11 11 7 22 11 27 9 4
-3 10 -1 14 5 9 15 22 12 22 -4z m130 -106 c-1 -11 -4 -20 -8 -20 -10 0 -19
27 -12 34 12 12 22 5 20 -14z m-40 -37 c0 -8 -4 -10 -12 -3 -7 5 -16 6 -20 2
-5 -4 -5 -2 -2 4 9 15 34 13 34 -3z"/>
<path d="M2207 1729 c7 -7 15 -10 18 -7 3 3 -2 9 -12 12 -14 6 -15 5 -6 -5z"/>
<path d="M2311 1723 c6 -7 19 -12 28 -12 13 1 13 2 -2 6 -9 2 -15 8 -13 12 3
4 -1 8 -9 8 -11 0 -12 -4 -4 -14z"/>
<path d="M2464 1725 c-4 -8 -10 -13 -14 -10 -5 3 -12 0 -16 -6 -4 -8 -3 -9 4
-5 16 10 15 -7 0 -23 -10 -11 -10 -13 0 -7 6 4 12 3 12 -3 0 -5 -6 -12 -12
-14 -10 -4 -9 -8 2 -16 9 -7 10 -11 3 -11 -6 0 -10 -9 -8 -20 2 -11 0 -18 -6
-15 -5 4 -12 0 -15 -8 -4 -12 -20 -14 -56 -8 -5 0 -8 6 -8 11 0 6 6 9 13 8 6
-2 11 3 9 10 -1 8 2 11 9 7 7 -5 9 -1 7 11 -2 11 -10 18 -18 16 -11 -3 -11 -1
0 13 12 15 11 16 -6 13 -12 -2 -18 2 -17 12 1 8 -13 23 -33 33 -19 9 -33 13
-30 8 3 -5 -2 -12 -12 -16 -16 -6 -16 -7 2 -21 12 -8 15 -14 7 -14 -11 0 -11
-3 -1 -15 7 -8 9 -15 5 -15 -4 0 -1 -8 6 -17 12 -15 10 -15 -16 1 -20 13 -26
15 -18 4 7 -8 9 -19 5 -23 -4 -5 -2 -5 4 -2 7 4 17 1 23 -7 9 -11 6 -18 -15
-35 -15 -12 -22 -21 -17 -21 5 0 14 5 21 12 9 9 12 9 12 -1 0 -7 5 -9 12 -5 7
4 8 3 4 -5 -4 -6 -12 -9 -17 -6 -5 4 -9 0 -9 -9 0 -8 -3 -21 -6 -30 -3 -9 -1
-16 6 -16 6 0 8 5 5 10 -3 6 -1 10 5 10 6 0 8 5 4 12 -4 7 -3 8 4 4 9 -5 9
-13 2 -26 -14 -26 -13 -30 7 -23 12 5 14 3 8 -7 -6 -9 -4 -11 4 -6 7 5 11 20
9 36 -1 15 4 36 12 46 13 16 13 17 -1 12 -13 -5 -16 -2 -11 14 3 12 7 16 12 8
4 -6 11 -10 16 -9 24 4 41 -2 41 -16 0 -12 -3 -12 -15 -2 -13 10 -14 9 -2 -10
8 -12 18 -19 24 -16 5 4 7 -1 2 -12 -5 -15 -4 -16 9 -5 12 10 15 10 15 -2 0
-8 -6 -20 -12 -27 -7 -7 -8 -12 -3 -11 28 6 56 -1 49 -12 -4 -7 -3 -8 5 -4 6
4 9 12 6 17 -8 12 8 12 21 -1 6 -6 10 -3 10 9 0 11 -4 17 -9 14 -14 -9 -3 31
13 45 13 10 13 14 -4 27 -11 8 -17 18 -13 21 4 4 1 14 -6 22 -11 13 -9 14 13
2 25 -13 25 -13 7 8 -12 13 -15 22 -7 27 14 8 9 37 -9 51 -11 9 -12 12 -1 19
9 6 11 4 5 -6 -5 -8 -5 -11 0 -7 4 4 15 3 22 -4 11 -9 17 -9 24 3 7 11 9 9 9
-9 0 -13 6 -22 13 -21 26 3 47 -1 47 -11 0 -5 -6 -7 -14 -4 -8 3 -17 0 -22 -7
-4 -7 -3 -10 4 -5 11 6 25 -9 28 -31 1 -7 -5 -9 -14 -5 -15 5 -15 4 -3 -11 7
-9 10 -17 5 -17 -5 0 -2 -5 6 -11 13 -9 13 -10 0 -6 -8 2 -14 10 -12 16 1 7
-2 9 -9 6 -7 -5 -3 -16 13 -32 19 -21 20 -23 4 -17 -13 5 -17 4 -13 -3 4 -6 1
-14 -5 -16 -10 -4 -10 -6 0 -6 7 -1 11 -5 7 -10 -3 -5 -1 -12 4 -16 6 -3 8 4
6 15 -2 11 0 18 5 15 4 -3 7 -16 6 -30 -2 -13 0 -22 5 -20 4 3 10 -1 13 -7 4
-7 4 -3 2 9 -3 16 0 20 13 16 9 -4 13 -3 9 2 -4 4 -2 17 4 29 10 19 10 20 -6
7 -15 -13 -16 -12 -7 11 7 18 6 29 -2 37 -8 8 -8 14 1 23 14 14 16 32 4 24 -5
-3 -9 1 -9 8 0 9 7 12 16 8 14 -5 14 -3 2 11 -9 11 -10 17 -2 17 13 0 10 22
-4 32 -5 4 0 6 12 6 11 -1 20 -7 19 -13 -2 -5 -1 -7 1 -2 3 4 8 5 12 3 9 -6 7
31 -2 40 -4 4 -14 1 -24 -7 -11 -9 -14 -10 -9 -1 4 7 1 12 -8 13 -9 1 -22 2
-28 3 -7 2 -20 -1 -28 -5 -8 -4 -23 -3 -33 3 -12 6 -17 6 -13 0 3 -5 0 -15 -8
-21 -10 -9 -16 -7 -26 4 -7 9 -20 13 -28 10 -10 -3 -12 0 -8 10 3 8 3 15 0 15
-2 0 -7 -7 -10 -15z m166 -15 c0 -5 -5 -10 -11 -10 -5 0 -7 5 -4 10 3 6 8 10
11 10 2 0 4 -4 4 -10z m-62 -25 c-3 -3 -9 2 -12 12 -6 14 -5 15 5 6 7 -7 10
-15 7 -18z m-70 -40 c-3 -3 -9 2 -12 12 -6 14 -5 15 5 6 7 -7 10 -15 7 -18z
m12 -105 c0 -5 -2 -10 -4 -10 -3 0 -8 5 -11 10 -3 6 -1 10 4 10 6 0 11 -4 11
-10z"/>
<path d="M1692 1723 c-6 -3 -9 -10 -5 -16 4 -7 -1 -6 -10 2 -9 7 -17 12 -18
10 -6 -31 -6 -39 3 -39 6 0 5 -6 -2 -15 -8 -9 -9 -15 -2 -15 6 0 9 -9 7 -20
-2 -11 1 -23 7 -26 6 -4 8 -3 5 3 -4 6 -1 13 6 16 10 4 13 -3 12 -24 -2 -30
13 -68 16 -39 1 8 1 18 1 22 -1 3 4 8 11 11 8 3 13 -5 12 -22 0 -14 5 -25 11
-24 16 3 25 -35 12 -44 -7 -3 -8 -1 -4 5 4 7 2 12 -3 12 -6 0 -11 -8 -12 -17
0 -14 -3 -12 -10 5 -7 19 -29 23 -29 6 0 -3 5 -2 10 1 15 9 12 -1 -4 -14 -11
-9 -16 -9 -22 0 -5 8 -3 9 7 4 12 -8 12 -6 0 8 -16 20 -22 22 -18 5 1 -7 -4
-12 -11 -10 -8 1 -11 -2 -7 -8 3 -6 12 -7 18 -3 7 3 3 -4 -8 -17 -11 -13 -14
-20 -7 -16 6 4 12 3 12 -2 0 -6 7 -13 16 -16 13 -5 14 -4 5 7 -9 12 -7 13 14
9 17 -3 25 0 25 9 1 8 7 3 14 -10 10 -19 14 -20 19 -8 3 9 2 18 -4 21 -5 2 -4
3 3 2 7 -2 12 -12 10 -22 -2 -15 -1 -16 7 -5 5 8 16 11 25 8 14 -6 15 -3 5 16
-11 19 -10 20 3 10 12 -10 15 -10 15 2 0 8 -4 15 -8 15 -13 0 -18 29 -7 36 6
4 8 3 4 -4 -3 -6 -3 -13 2 -16 4 -2 8 6 8 19 0 14 -2 23 -4 20 -9 -9 -50 39
-45 53 5 11 2 14 -9 9 -9 -3 -23 2 -33 13 -10 11 -23 17 -29 13 -7 -4 -7 -1 1
7 9 10 15 10 28 -4 24 -24 30 -20 11 9 -9 14 -13 25 -9 26 5 1 17 2 28 3 11 0
19 7 17 14 -1 8 2 11 8 7 8 -5 7 -12 -2 -23 -11 -13 -11 -14 2 -10 8 2 16 14
16 26 1 12 -2 19 -7 17 -4 -3 -10 -1 -13 4 -3 5 -15 7 -26 4 -11 -3 -18 -9
-15 -12 2 -4 -2 -8 -10 -8 -8 0 -12 4 -10 8 6 9 -16 17 -33 12z m38 -107 c0
-2 -7 -7 -16 -10 -8 -3 -12 -2 -9 4 6 10 25 14 25 6z m40 -45 c0 -5 -7 -12
-16 -15 -14 -5 -15 -4 -4 9 14 17 20 19 20 6z m30 -15 c0 -2 -7 -7 -16 -10 -8
-3 -12 -2 -9 4 6 10 25 14 25 6z"/>
<path d="M1930 1704 c0 -8 5 -12 10 -9 6 4 8 11 5 16 -9 14 -15 11 -15 -7z"/>
<path d="M2185 1710 c-3 -5 -14 -7 -24 -5 -10 2 -18 -3 -18 -10 0 -8 4 -12 8
-9 4 2 12 -3 17 -13 12 -21 39 -25 46 -6 3 8 10 12 15 8 5 -3 13 0 17 6 4 8 3
9 -4 5 -7 -4 -12 -3 -12 1 0 13 -39 34 -45 23z m28 -24 c7 4 8 3 4 -1 -13 -15
-36 -14 -49 3 -8 10 -9 13 -1 9 6 -4 15 -2 20 5 5 10 8 8 11 -5 2 -10 8 -14
15 -11z"/>
<path d="M130 1695 c0 -5 5 -17 10 -25 5 -8 10 -10 10 -5 0 6 -5 17 -10 25 -5
8 -10 11 -10 5z"/>
<path d="M187 1683 c3 -7 6 -13 8 -13 2 0 5 6 8 13 3 8 -1 14 -8 14 -7 0 -11
-6 -8 -14z"/>
<path d="M251 1684 c0 -11 3 -14 6 -6 3 7 2 16 -1 19 -3 4 -6 -2 -5 -13z"/>
<path d="M386 1689 c3 -5 9 -7 14 -4 4 3 11 0 13 -5 3 -6 4 -5 3 1 -1 7 -10
13 -19 15 -9 1 -15 -2 -11 -7z"/>
<path d="M453 1681 c0 -11 5 -18 9 -15 4 3 5 11 1 19 -7 21 -12 19 -10 -4z"/>
<path d="M476 1685 c4 -8 8 -15 10 -15 2 0 4 7 4 15 0 8 -4 15 -10 15 -5 0 -7
-7 -4 -15z"/>
<path d="M780 1685 c-7 -9 -8 -15 -2 -15 5 0 12 7 16 15 3 8 4 15 2 15 -2 0
-9 -7 -16 -15z"/>
<path d="M2370 1690 c0 -5 5 -10 11 -10 5 0 7 5 4 10 -3 6 -8 10 -11 10 -2 0
-4 -4 -4 -10z"/>
<path d="M1740 1676 c0 -2 7 -9 15 -16 9 -7 15 -8 15 -2 0 5 -7 12 -15 16 -8
3 -15 4 -15 2z"/>
<path d="M2140 1660 c-11 -7 -11 -10 -2 -10 7 0 25 -12 39 -26 14 -14 31 -27
37 -28 6 -1 18 -6 26 -11 9 -5 7 1 -5 15 -19 23 -19 23 -1 16 19 -7 19 -6 1
14 -13 14 -14 20 -5 20 7 0 10 3 7 6 -4 4 -12 3 -19 -3 -7 -5 -20 -9 -28 -8
-8 1 -21 3 -28 3 -7 1 -10 7 -7 12 8 12 4 12 -15 0z m77 -39 c0 -11 -5 -18 -9
-15 -4 3 -5 11 -1 19 7 21 12 19 10 -4z"/>
<path d="M765 1650 c-4 -6 -10 -8 -14 -6 -4 3 -8 -1 -8 -9 0 -20 13 -19 21 1
3 8 10 12 16 9 5 -3 10 -1 10 4 0 14 -17 14 -25 1z"/>
<path d="M2526 1632 c-3 -5 1 -9 9 -9 8 0 12 4 9 9 -3 4 -7 8 -9 8 -2 0 -6 -4
-9 -8z"/>
<path d="M2410 1620 c13 -9 8 -14 -12 -12 -3 1 -12 -5 -18 -13 -16 -20 0 -19
28 1 22 15 22 34 -1 34 -7 0 -6 -4 3 -10z"/>
<path d="M910 1610 c0 -5 5 -10 11 -10 5 0 7 5 4 10 -3 6 -8 10 -11 10 -2 0
-4 -4 -4 -10z"/>
<path d="M2191 1583 c1 -5 0 -10 -1 -13 -1 -3 -3 -17 -4 -32 l-2 -28 26 28
c23 24 25 29 11 40 -17 13 -32 16 -30 5z m24 -23 c-3 -5 -12 -10 -18 -10 -7 0
-6 4 3 10 19 12 23 12 15 0z"/>
<path d="M2268 1583 c7 -3 16 -2 19 1 4 3 -2 6 -13 5 -11 0 -14 -3 -6 -6z"/>
<path d="M535 1570 c-3 -5 -2 -10 4 -10 5 0 13 5 16 10 3 6 2 10 -4 10 -5 0
-13 -4 -16 -10z"/>
<path d="M2116 1572 c-3 -4 4 -9 15 -9 23 -2 25 3 4 10 -8 4 -16 3 -19 -1z"/>
<path d="M2640 1570 c0 -5 5 -10 11 -10 5 0 7 5 4 10 -3 6 -8 10 -11 10 -2 0
-4 -4 -4 -10z"/>
<path d="M2555 1539 c-4 -6 -5 -12 -2 -15 2 -3 7 2 10 11 7 17 1 20 -8 4z"/>
<path d="M2218 1502 c-7 -9 -8 -14 -4 -10 5 4 16 2 25 -5 14 -11 15 -10 1 7
-14 18 -13 19 2 13 10 -3 19 -3 22 1 10 16 -33 10 -46 -6z"/>
<path d="M2335 1510 c3 -5 8 -10 11 -10 2 0 4 5 4 10 0 6 -5 10 -11 10 -5 0
-7 -4 -4 -10z"/>
<path d="M1956 1498 c3 -5 10 -6 15 -3 13 9 11 12 -6 12 -8 0 -12 -4 -9 -9z"/>
<path d="M595 1470 c-2 -3 5 -7 16 -7 10 -1 19 2 19 6 0 9 -29 10 -35 1z"/>
<path d="M1290 1449 c0 -5 5 -7 10 -4 6 3 10 8 10 11 0 2 -4 4 -10 4 -5 0 -10
-5 -10 -11z"/>
<path d="M421 1436 c-10 -11 -9 -14 1 -12 14 2 23 15 15 22 -2 2 -10 -2 -16
-10z"/>
<path d="M2478 1403 c-9 -10 -13 -23 -11 -30 6 -16 -14 -26 -23 -12 -5 8 -3 9
6 4 9 -5 11 -4 6 4 -12 19 -34 -5 -30 -34 1 -14 -2 -23 -7 -19 -5 3 -7 10 -4
15 4 5 2 9 -3 9 -6 0 -13 -7 -16 -16 -9 -23 -8 -26 6 -18 6 4 4 -3 -5 -16 -15
-22 -15 -25 0 -42 13 -15 14 -18 2 -13 -10 4 -15 -1 -15 -14 0 -13 4 -17 11
-11 7 6 11 2 12 -11 1 -12 -3 -17 -9 -13 -7 4 -8 2 -4 -4 4 -6 14 -8 24 -5 15
6 15 4 4 -9 -11 -14 -10 -18 5 -26 10 -5 24 -7 31 -5 11 4 17 -9 13 -31 -1 -5
4 -4 12 2 11 9 19 6 41 -19 15 -17 28 -39 29 -49 1 -10 5 -16 9 -14 5 3 5 11
2 17 -4 7 1 4 11 -5 15 -14 16 -20 6 -32 -8 -9 -18 -13 -24 -9 -5 3 -7 1 -3
-5 3 -6 2 -13 -4 -17 -6 -4 -7 -11 -4 -17 5 -8 1 -9 -10 -5 -10 4 -15 3 -11
-3 3 -6 1 -10 -4 -10 -6 0 -11 6 -11 13 0 8 -4 7 -11 -3 -8 -12 -9 -10 -4 7 5
19 3 22 -12 16 -16 -6 -17 -5 -3 12 14 17 14 18 -7 7 -29 -16 -33 -15 -26 6 5
14 3 13 -10 -3 -10 -12 -16 -15 -17 -7 0 7 -5 10 -10 7 -6 -4 -8 -10 -5 -15 3
-4 -3 -7 -12 -6 -18 1 -26 -41 -10 -51 6 -4 7 -1 2 8 -8 12 -6 12 8 0 10 -8
15 -16 13 -19 -8 -8 23 -33 43 -35 12 -1 19 -8 18 -19 -1 -12 -7 -16 -16 -13
-10 4 -11 2 -3 -7 6 -7 10 -17 10 -21 0 -5 4 -12 8 -15 4 -4 4 -1 0 6 -5 7 -1
12 9 12 9 0 15 -5 13 -12 -3 -7 -27 -12 -64 -12 -50 1 -59 3 -57 18 1 12 -2
15 -9 8 -7 -7 -6 -18 2 -33 9 -21 9 -22 -2 -8 -8 9 -22 19 -33 21 -11 2 -19
10 -17 17 1 7 -2 10 -8 6 -6 -4 -19 -1 -28 7 -15 11 -15 11 -5 -3 7 -9 10 -19
6 -23 -4 -4 0 -4 9 -1 9 4 19 1 24 -6 5 -9 2 -10 -10 -6 -14 6 -17 3 -12 -10
6 -17 5 -17 -8 0 -14 18 -42 24 -30 6 5 -8 1 -8 -14 0 -11 6 -32 11 -46 11
-14 0 -28 5 -31 10 -8 13 -25 13 -25 -1 0 -5 4 -8 9 -5 5 3 11 0 14 -7 3 -8
-1 -14 -9 -14 -8 0 -14 5 -14 10 0 5 -7 7 -15 3 -21 -8 -45 3 -45 20 0 8 -5
14 -10 14 -7 0 -7 -6 0 -19 6 -12 6 -22 1 -25 -5 -3 -14 8 -20 24 -5 17 -12
30 -15 30 -3 0 -2 -10 3 -23 9 -23 8 -23 -47 -20 -31 2 -63 10 -72 18 -15 13
-17 13 -17 0 0 -8 4 -12 8 -10 4 3 9 -1 12 -8 3 -8 -1 -14 -9 -14 -8 0 -14 4
-14 8 0 9 -83 5 -100 -6 -8 -5 -11 -4 -7 2 4 6 0 14 -9 17 -21 8 -24 8 -24 -5
0 -5 6 -7 13 -3 6 4 8 3 4 -1 -19 -21 -34 -12 -32 19 2 17 -1 38 -5 46 -7 13
-2 16 21 15 16 0 29 -3 29 -7 0 -5 5 -8 11 -8 5 0 8 4 4 9 -3 5 -1 13 5 16 6
4 9 1 8 -6 -2 -7 2 -13 9 -14 6 0 15 -4 20 -9 5 -5 3 -6 -4 -2 -7 4 -13 2 -13
-4 0 -7 6 -10 13 -7 6 2 11 12 10 21 0 11 4 15 13 12 7 -3 16 0 20 6 4 6 3 8
-3 5 -6 -4 -13 0 -16 8 -4 9 -1 12 7 9 8 -3 17 0 21 6 3 6 3 10 -2 9 -21 -4
-37 2 -27 9 7 4 3 15 -14 31 -21 21 -23 21 -18 5 4 -15 1 -20 -14 -21 -11 -1
-20 3 -20 8 0 6 4 7 10 4 5 -3 7 0 4 9 -5 12 -9 13 -19 3 -7 -7 -11 -15 -8
-19 2 -4 -3 -5 -12 -2 -14 6 -14 8 2 20 17 13 17 14 -2 8 -11 -4 -26 -14 -33
-23 -11 -14 -12 -12 -8 14 3 16 1 32 -5 36 -8 5 -8 8 0 13 6 4 11 2 11 -3 0
-6 5 -11 11 -11 8 0 9 4 0 13 -6 8 -8 17 -4 21 4 4 0 4 -8 1 -10 -4 -16 0 -16
9 0 8 4 13 9 10 4 -3 8 2 8 11 0 10 -5 14 -12 10 -7 -4 -2 3 12 16 22 19 22
21 5 15 -16 -5 -21 -1 -22 16 -2 18 0 19 7 8 8 -13 11 -13 22 -1 10 10 10 12
1 7 -8 -5 -13 -1 -13 9 0 10 -5 13 -12 9 -7 -4 -4 3 6 15 14 16 16 20 5 16
-12 -4 -15 2 -15 25 0 19 4 29 11 26 6 -2 12 2 12 10 0 7 -4 11 -8 9 -4 -3 -9
2 -13 10 -3 8 0 17 6 21 7 4 8 3 4 -4 -5 -8 -2 -10 8 -6 16 6 23 25 9 23 -21
-3 -37 2 -27 9 6 4 16 18 23 32 l12 25 -18 -23 c-20 -25 -38 -20 -23 7 12 24
-2 41 -28 36 -13 -2 -22 1 -22 8 0 8 -4 7 -9 -2 -6 -9 -6 -22 0 -32 7 -14 5
-17 -15 -15 -18 2 -22 -1 -19 -15 3 -10 10 -17 15 -16 6 1 12 -5 13 -14 2 -9
-3 -16 -11 -16 -11 0 -11 3 -1 16 10 14 10 14 -4 4 -20 -16 -19 -79 1 -75 11
3 10 -1 -3 -16 -19 -21 -24 -43 -5 -24 7 7 16 12 22 12 5 0 0 -8 -12 -18 -19
-17 -19 -19 -4 -30 16 -11 16 -12 0 -9 -9 1 -16 -2 -15 -8 1 -5 11 -9 22 -7
16 2 17 0 5 -7 -8 -6 -12 -13 -8 -16 3 -4 1 -21 -6 -38 -7 -18 -12 -45 -12
-62 1 -16 -3 -34 -9 -38 -6 -5 -4 -7 5 -4 9 2 15 14 14 30 -1 15 3 24 8 21 4
-3 6 -10 2 -15 -3 -5 0 -17 8 -26 8 -10 8 -14 1 -10 -19 12 -37 -56 -20 -80
10 -14 40 -5 30 10 -3 6 -1 7 6 3 9 -6 9 -11 1 -21 -8 -9 -6 -14 6 -19 24 -9
31 -7 14 4 -12 8 -10 9 8 7 29 -4 48 -22 33 -31 -6 -4 -11 0 -11 11 0 15 -2
16 -10 3 -9 -15 7 -33 22 -24 4 3 8 -1 8 -9 0 -19 -22 -27 -54 -21 -14 2 -26
1 -26 -4 0 -5 -7 -9 -15 -9 -8 0 -12 3 -10 6 2 4 -9 14 -24 22 -22 13 -28 13
-28 3 0 -7 4 -11 9 -8 4 3 8 0 8 -6 0 -6 6 -8 13 -4 7 4 9 3 4 -2 -17 -18 -62
0 -49 20 3 5 0 6 -7 2 -6 -4 -9 -12 -6 -17 4 -5 2 -9 -4 -9 -5 0 -12 4 -15 9
-3 4 -18 6 -33 3 -25 -5 -26 -3 -15 10 11 13 11 18 0 24 -7 4 -10 4 -6 -1 11
-12 -11 -35 -28 -28 -8 3 -14 0 -14 -5 0 -6 8 -9 18 -7 10 2 24 0 31 -4 7 -5
-6 -8 -28 -7 -23 0 -41 4 -41 7 0 4 -11 6 -25 5 -16 0 -23 -6 -20 -13 7 -20
-3 -15 -15 7 -6 11 -7 19 -2 18 5 -2 24 9 41 25 31 27 47 35 36 17 -4 -6 1 -7
11 -3 14 5 15 7 1 15 -19 10 -11 38 10 38 8 0 12 4 9 8 -11 18 -14 62 -4 62 7
0 7 4 -1 13 -6 8 -8 17 -5 20 10 9 12 107 3 101 -8 -4 -3 34 7 70 4 10 2 16
-3 13 -5 -3 -9 10 -9 29 0 19 4 34 9 34 5 0 3 8 -4 17 -12 15 -12 16 1 8 13
-8 13 -7 1 8 -7 9 -10 17 -5 17 5 0 9 11 9 24 0 16 -5 22 -15 19 -9 -3 -8 2 5
13 18 15 18 16 1 10 -13 -5 -17 -2 -13 8 4 11 1 13 -10 9 -12 -5 -14 -3 -8 8
5 8 5 11 -1 6 -12 -12 -12 -30 1 -39 6 -5 6 -8 -2 -8 -6 0 -15 5 -18 10 -5 8
-12 7 -23 -2 -13 -11 -14 -11 -7 1 6 10 4 12 -4 6 -7 -4 -11 -16 -8 -26 3 -12
0 -19 -10 -19 -12 0 -12 -3 2 -16 11 -12 13 -20 6 -27 -6 -6 -11 -18 -11 -26
0 -14 1 -14 10 -1 5 8 10 10 10 4 0 -5 -5 -15 -11 -21 -7 -7 -8 -19 -4 -30 11
-26 13 -53 3 -47 -11 7 -10 -3 3 -28 8 -15 8 -19 0 -14 -15 10 -14 -7 1 -22 9
-9 8 -12 -6 -12 -16 0 -16 -1 -1 -16 11 -12 13 -20 6 -27 -6 -6 -11 -18 -11
-26 0 -14 1 -14 10 -1 5 8 10 10 10 4 0 -5 -5 -15 -12 -22 -9 -9 -9 -18 0 -37
7 -15 8 -24 2 -20 -14 9 -12 -8 3 -24 9 -11 9 -12 0 -7 -9 5 -11 2 -7 -8 3 -9
11 -13 17 -9 6 4 7 1 3 -6 -5 -8 0 -14 13 -18 11 -3 18 -10 15 -15 -3 -5 -12
-7 -19 -4 -7 2 -12 -2 -11 -9 0 -8 -3 -13 -9 -12 -5 1 -9 6 -7 10 1 5 -2 6 -7
3 -5 -4 -8 -19 -5 -34 l4 -27 -16 25 c-14 23 -15 23 -11 3 4 -18 1 -21 -17
-17 -93 20 -107 21 -103 9 3 -6 -1 -12 -8 -12 -7 0 -12 11 -12 23 0 14 4 21
10 17 6 -3 7 -1 3 6 -10 15 -29 3 -22 -14 6 -17 -24 -29 -37 -16 -7 7 -5 12 6
17 9 3 17 11 17 16 0 7 -5 6 -13 -1 -8 -6 -17 -8 -20 -4 -9 9 -9 24 1 20 4 -1
8 3 10 8 1 6 -3 10 -8 10 -12 0 -30 25 -29 40 0 6 6 -1 14 -15 7 -14 15 -25
17 -25 9 2 48 41 48 49 0 6 -5 5 -12 -2 -7 -7 -17 -12 -23 -12 -5 0 -2 5 8 11
9 6 14 15 11 21 -4 6 -3 9 2 6 5 -3 15 1 23 9 12 13 11 14 -10 9 -23 -7 -23
-6 -5 8 17 14 18 16 3 16 -9 0 -17 5 -17 11 0 6 6 9 13 6 13 -5 14 8 8 56 -1
4 -9 7 -18 8 -12 0 -8 4 10 11 29 10 36 25 12 25 -8 0 -12 -4 -9 -9 3 -4 0 -8
-6 -8 -7 0 -9 7 -6 16 3 9 6 17 6 20 0 2 6 2 13 0 6 -1 9 -1 5 1 -5 3 -8 9 -8
14 0 6 4 8 8 5 5 -3 9 1 9 9 0 8 -9 18 -20 21 -20 6 -19 7 4 20 13 7 18 13 12
14 -15 0 -14 49 1 69 8 11 8 13 -1 7 -7 -4 -13 -3 -13 3 0 5 6 12 13 14 9 4 9
6 0 6 -6 1 -15 -3 -18 -9 -8 -13 -25 -13 -25 1 0 5 5 7 10 4 16 -10 5 35 -11
46 -10 7 -6 8 12 3 33 -7 45 9 21 27 -15 13 -16 12 -3 -3 12 -16 11 -18 -2
-18 -9 0 -19 5 -22 10 -4 6 -11 8 -16 5 -5 -3 -6 1 -3 9 3 9 11 13 18 9 6 -3
8 -2 3 2 -4 5 -16 9 -26 10 -14 1 -17 -4 -13 -19 5 -19 3 -19 -15 3 -14 17
-22 21 -27 12 -4 -6 -4 -10 1 -9 4 2 10 -1 11 -7 2 -5 8 -17 13 -26 7 -13 3
-15 -19 -11 -26 4 -27 4 -7 -13 11 -9 15 -14 9 -11 -16 8 -24 -16 -17 -46 6
-21 5 -22 -13 -9 -19 15 -19 14 0 -5 13 -13 20 -15 23 -6 3 6 9 12 15 12 6 0
6 -6 -2 -15 -6 -8 -8 -20 -4 -27 6 -11 5 -11 -8 0 -12 10 -18 10 -28 -2 -6 -9
-9 -19 -6 -25 7 -11 -13 -9 -33 3 -11 7 -13 5 -7 -10 5 -15 4 -16 -5 -7 -6 6
-17 9 -24 6 -7 -2 -15 4 -18 14 -4 16 -5 16 -6 -2 -2 -18 -3 -18 -17 5 -13 21
-15 22 -11 4 3 -13 -1 -21 -9 -21 -7 0 -11 4 -8 8 2 4 0 10 -5 14 -6 3 -8 12
-4 20 3 9 -1 15 -8 16 -8 0 -3 5 10 10 18 7 21 12 12 23 -6 7 -10 24 -8 36 4
23 -16 75 -33 85 -5 3 -16 -3 -26 -12 -10 -10 -19 -17 -21 -15 -2 1 -9 2 -15
2 -7 0 -5 -5 5 -11 9 -6 15 -15 11 -20 -4 -6 -10 -7 -17 0 -9 7 -12 -1 -12
-29 -1 -30 2 -37 15 -32 12 5 11 2 -2 -12 -19 -19 -25 -41 -8 -31 7 4 7 -3 0
-20 -6 -15 -7 -32 -3 -38 4 -7 0 -8 -11 -4 -11 4 -15 3 -11 -4 4 -6 13 -8 21
-5 7 3 16 0 20 -6 4 -7 3 -8 -4 -4 -7 4 -12 1 -12 -9 0 -9 -4 -14 -8 -11 -10
6 -9 -25 2 -42 4 -7 12 -9 18 -6 7 4 8 2 4 -5 -4 -6 -12 -8 -18 -5 -6 4 -9 1
-6 -7 3 -8 14 -13 24 -12 18 1 18 1 2 -11 -10 -7 -18 -19 -18 -25 0 -7 -4 -10
-8 -7 -18 11 -5 -37 14 -52 16 -13 16 -14 1 -9 -14 5 -16 2 -11 -20 5 -18 4
-24 -5 -19 -6 4 -11 2 -11 -4 0 -7 7 -10 15 -6 8 3 15 1 15 -4 0 -6 -5 -10
-12 -10 -17 0 -4 -10 21 -15 13 -2 21 1 21 11 0 8 5 14 10 14 7 0 7 -6 0 -20
-6 -11 -16 -20 -23 -20 -16 0 14 -20 31 -20 9 0 11 7 6 22 -6 21 -5 22 11 8
11 -8 16 -10 12 -3 -9 14 2 43 15 43 6 0 4 -8 -3 -17 -13 -16 -12 -17 4 -4 17
13 17 15 -3 36 -16 17 -18 25 -9 30 7 5 10 4 5 -3 -3 -6 -2 -13 3 -16 10 -7 9
13 -2 31 -4 6 -3 14 3 18 6 4 7 11 4 17 -10 16 -13 79 -4 73 5 -3 10 0 12 7 2
6 12 12 22 14 13 2 16 -2 11 -14 -5 -14 -4 -15 6 -4 16 15 33 16 23 0 -5 -7
-3 -8 5 -4 7 5 10 15 6 25 -4 10 1 8 15 -6 21 -23 36 -31 25 -14 -3 5 -1 12 5
16 5 3 10 0 10 -8 0 -8 10 -13 22 -13 13 1 23 -3 23 -9 0 -5 3 -15 7 -21 4 -6
1 -11 -7 -11 -7 0 -12 8 -10 19 3 15 1 16 -16 8 -23 -13 -26 -22 -4 -13 9 3
15 2 14 -3 -4 -22 2 -35 13 -28 6 4 8 3 4 -4 -3 -5 0 -13 6 -16 7 -3 4 -4 -7
-1 -15 4 -21 0 -22 -15 -1 -11 3 -20 8 -20 6 0 7 6 3 13 -4 6 -3 8 1 4 5 -4 8
-25 7 -45 -2 -26 3 -43 17 -58 11 -12 17 -24 14 -28 -3 -3 0 -12 7 -21 7 -8 9
-15 6 -15 -4 0 -2 -10 4 -23 10 -20 10 -20 -3 -5 -8 10 -21 18 -30 18 -9 0
-19 5 -22 10 -4 6 -11 8 -16 4 -5 -3 -7 -10 -3 -15 3 -5 9 -7 13 -5 4 3 13 0
21 -5 11 -6 6 -7 -15 -3 -52 11 -166 13 -160 3 4 -5 1 -9 -4 -9 -6 0 -11 5
-11 10 0 6 -9 10 -21 10 -11 0 -18 4 -14 9 3 5 0 13 -7 17 -7 4 -10 4 -6 -1 4
-4 2 -15 -5 -23 -8 -11 -8 -14 0 -9 6 4 14 3 17 -2 4 -5 2 -12 -3 -15 -5 -4
-12 -2 -16 3 -7 13 -44 10 -42 -4 1 -5 -4 -9 -11 -7 -17 3 -15 -3 5 -19 9 -8
14 -9 10 -3 -4 7 1 18 11 25 15 12 16 12 6 -1 -6 -8 -10 -23 -9 -32 3 -15 0
-16 -18 -6 -22 11 -22 10 -4 -10 12 -13 15 -22 7 -27 -5 -3 -8 -10 -5 -15 3
-5 1 -12 -5 -15 -19 -12 10 -36 34 -29 19 6 19 5 7 -10 -8 -9 -11 -19 -7 -23
3 -3 6 0 6 7 0 9 5 7 15 -6 15 -18 15 -18 8 0 -4 13 -3 17 5 12 6 -3 13 -2 17
4 7 12 25 4 25 -12 0 -5 -7 -7 -16 -4 -14 6 -15 4 -4 -9 12 -15 15 -15 24 2
12 20 36 29 36 13 0 -6 -4 -10 -10 -10 -5 0 -10 -5 -10 -11 0 -8 4 -8 15 1 8
6 20 8 27 4 8 -5 8 -1 -2 11 -14 17 -14 18 9 6 19 -11 25 -11 32 0 6 10 10 10
23 0 9 -7 14 -17 11 -20 -2 -4 2 -8 10 -8 11 0 12 4 4 13 -6 7 -6 14 -1 18 6
3 13 -2 16 -11 5 -12 10 -13 18 -5 6 6 17 8 26 5 11 -5 13 -2 7 6 -6 10 -3 11
15 1 18 -10 24 -9 31 1 6 10 10 10 23 0 9 -7 14 -17 11 -20 -2 -4 2 -8 10 -8
11 0 12 4 4 13 -7 8 -7 14 1 19 5 3 10 1 10 -4 0 -6 4 -11 10 -11 5 0 7 8 4
18 -4 10 -3 13 3 6 4 -6 16 -10 26 -8 9 1 15 -2 12 -7 -4 -5 1 -6 9 -3 9 3 13
11 9 17 -3 6 -1 7 6 3 7 -5 9 -16 5 -28 -4 -14 -2 -18 5 -14 6 4 11 14 11 22
0 8 4 13 10 9 5 -3 7 -13 4 -23 -5 -14 -4 -14 4 -2 6 8 9 17 6 21 -2 4 1 11 7
15 8 4 9 3 5 -5 -5 -8 3 -10 28 -7 21 3 34 1 30 -5 -3 -5 -9 -7 -14 -4 -12 7
-40 -5 -40 -17 0 -6 6 -5 15 2 8 6 19 9 24 6 5 -4 19 4 31 16 16 17 19 18 15
6 -7 -18 2 -23 33 -19 8 1 21 -4 30 -11 15 -12 16 -11 3 5 -8 9 -11 21 -7 24
4 4 11 1 15 -6 6 -10 10 -10 16 -1 4 6 13 9 21 6 8 -3 14 0 14 7 0 8 3 7 9 -2
8 -12 12 -12 25 -2 9 8 16 9 16 3 0 -13 -29 -24 -43 -16 -9 5 -9 4 -1 -5 8 -9
17 -9 40 0 16 7 31 13 34 13 3 1 11 5 19 10 10 6 12 5 7 -3 -5 -8 3 -10 28 -7
21 3 34 1 30 -5 -3 -5 -9 -7 -14 -4 -12 7 -40 -5 -40 -17 0 -6 6 -5 15 2 8 6
19 9 24 6 5 -4 19 4 31 16 16 17 19 18 15 6 -7 -18 3 -23 35 -18 23 3 26 10
10 20 -8 6 -10 10 -5 10 6 0 16 -4 24 -9 12 -8 12 -12 2 -25 -23 -27 -1 -17
25 12 23 24 24 25 14 4 -16 -34 -4 -39 13 -7 12 23 15 25 20 11 5 -11 3 -15
-5 -10 -7 4 -8 3 -4 -4 4 -6 13 -9 21 -6 8 4 12 11 8 18 -4 6 1 5 11 -3 15
-12 19 -13 26 -1 7 11 11 11 24 1 9 -7 14 -17 11 -20 -2 -4 2 -8 10 -8 11 0
12 4 4 13 -6 7 -6 14 -1 18 6 3 13 -2 16 -11 5 -12 10 -13 18 -5 6 6 17 8 26
5 11 -5 13 -2 7 6 -6 10 -3 11 15 1 18 -10 24 -9 31 1 6 10 10 10 23 0 9 -7
14 -17 11 -20 -2 -4 2 -8 10 -8 11 0 12 4 4 13 -6 7 -6 14 -1 18 6 3 13 -2 16
-11 5 -12 10 -13 18 -5 6 6 17 8 26 5 8 -4 13 -2 10 3 -4 5 9 10 27 10 19 0
32 -3 29 -7 -2 -5 -11 -6 -18 -3 -7 3 -19 -3 -27 -13 -13 -16 -12 -17 3 -5 9
8 22 11 27 7 6 -3 18 3 28 14 17 20 33 19 33 -2 0 -7 -4 -6 -10 3 -7 12 -9 10
-7 -8 2 -27 14 -29 22 -2 6 19 24 23 35 8 3 -4 21 -8 40 -9 19 -2 43 -6 52
-11 10 -5 19 -4 23 3 4 6 13 8 21 5 8 -3 23 5 35 17 17 19 19 19 13 3 -5 -14
-4 -17 4 -12 7 4 12 2 12 -3 0 -6 5 -11 10 -11 7 0 6 8 -1 23 -10 19 -10 20 2
11 8 -6 22 -10 32 -9 9 2 17 -1 17 -6 0 -5 7 -9 16 -9 9 0 12 -5 8 -12 -4 -7
-3 -9 1 -5 16 14 14 36 -3 30 -14 -4 -15 -3 -2 5 9 7 18 8 26 1 7 -6 14 -6 17
-2 9 14 2 171 -7 180 -5 4 -6 3 -3 -3 4 -7 1 -14 -7 -17 -11 -4 -13 1 -10 21
3 17 1 22 -4 14 -10 -14 -32 -13 -45 3 -5 6 -5 -1 -2 -15 3 -14 3 -20 -2 -15
-4 6 -21 11 -37 12 -16 0 -32 7 -37 15 -5 7 -9 8 -9 2 0 -5 5 -15 12 -22 8 -8
8 -12 1 -12 -13 0 -25 28 -18 40 3 5 0 12 -6 16 -8 5 -10 -2 -7 -23 3 -19 0
-30 -8 -30 -8 0 -11 11 -9 29 2 18 -2 31 -13 37 -13 8 -10 9 13 7 17 -1 31 -6
32 -10 1 -10 29 -27 39 -26 4 1 10 -4 14 -10 5 -9 9 -9 14 -1 4 6 2 11 -4 11
-6 0 -9 4 -5 10 3 5 13 7 23 4 15 -5 15 -4 -1 6 -9 6 -14 16 -11 22 4 7 2 8
-5 4 -6 -4 -8 -12 -5 -18 5 -7 2 -8 -6 -3 -9 6 -11 4 -5 -5 6 -9 4 -11 -5 -5
-9 6 -11 4 -5 -6 5 -8 4 -10 0 -6 -14 12 -15 37 -2 34 7 -1 11 3 10 10 -2 11
21 12 33 1 10 -10 34 3 34 18 0 8 5 14 11 14 5 0 7 -5 3 -12 -4 -7 -3 -8 5 -4
6 4 9 11 6 15 -2 5 3 17 11 27 9 10 13 14 10 7 -4 -6 -2 -14 3 -17 11 -7 9 13
-3 33 -6 9 -5 12 1 8 7 -4 10 15 10 52 -1 48 -3 58 -15 53 -11 -4 -13 -1 -7 9
8 12 6 12 -8 1 -15 -12 -16 -11 -12 16 3 25 0 30 -12 25 -12 -5 -14 -3 -8 8 8
12 6 12 -8 0 -15 -12 -17 -12 -11 3 4 10 0 18 -10 22 -9 3 -13 11 -9 18 5 7 2
7 -8 -1 -12 -10 -17 -8 -29 10 -13 21 -12 21 6 7 18 -14 18 -14 5 3 -10 13
-17 15 -27 6 -17 -14 -18 2 -1 20 10 11 8 12 -9 3 -11 -6 -26 -7 -33 -3 -10 6
-9 10 4 14 10 5 14 3 9 -5 -4 -7 -3 -8 4 -4 18 11 15 15 -14 26 -19 8 -23 14
-16 23 6 6 11 16 11 21 0 6 7 11 16 12 8 1 13 -2 9 -7 -3 -5 0 -9 5 -9 6 0 11
5 11 10 0 6 6 5 14 -2 8 -7 11 -17 8 -23 -3 -5 1 -4 10 3 13 10 18 10 24 1 4
-7 3 -9 -3 -6 -5 3 -10 0 -10 -8 0 -11 4 -12 14 -4 7 6 20 9 28 5 9 -3 13 -2
10 3 -3 5 4 12 15 16 11 3 20 11 20 16 0 13 -17 11 -24 -3 -3 -7 -3 -2 0 11 5
17 3 21 -6 16 -9 -5 -11 -4 -6 4 5 8 12 9 20 2 8 -7 12 -5 12 9 0 10 -3 17 -7
14 -4 -2 -10 2 -12 8 -4 10 -6 10 -6 1 -1 -9 -7 -8 -20 4 -11 9 -18 20 -16 23
7 11 -29 8 -44 -4 -12 -9 -12 -7 -1 14 l13 25 -23 -20 c-13 -11 -20 -14 -16
-7 5 8 0 12 -13 12 -12 0 -21 -5 -21 -11 0 -5 4 -8 8 -5 5 3 9 -1 9 -9 0 -11
-4 -12 -13 -4 -8 7 -14 6 -17 -3 -3 -7 -5 -4 -4 7 2 11 6 26 10 33 12 18 3 15
-15 -5z m-1608 -36 c0 -8 -3 -7 -9 2 -7 11 -10 9 -16 -8 -4 -13 -9 -20 -12
-18 -2 3 0 15 7 26 11 22 30 20 30 -2z m807 -4 c0 -9 -4 -10 -14 -2 -7 6 -13
12 -13 14 0 1 6 2 13 2 8 0 14 -6 14 -14z m28 8 c3 -5 2 -12 -3 -15 -5 -3 -9
1 -9 9 0 17 3 19 12 6z m890 -1 c3 -5 1 -10 -4 -10 -6 0 -11 5 -11 10 0 6 2
10 4 10 3 0 8 -4 11 -10z m-1709 -43 c1 -9 -2 -15 -7 -11 -5 3 -7 9 -4 14 3 4
0 11 -5 13 -6 3 -5 4 1 3 7 -1 13 -10 15 -19z m191 -42 c0 -8 -4 -12 -9 -9 -4
3 -8 9 -8 15 0 5 4 9 8 9 5 0 9 -7 9 -15z m568 -35 c-3 -5 -12 -10 -18 -10 -7
0 -6 4 3 10 19 12 23 12 15 0z m-480 -9 c3 -5 0 -13 -6 -17 -7 -4 -9 -3 -5 4
3 5 0 13 -6 15 -9 4 -10 6 -1 6 6 1 14 -3 18 -8z m-105 -31 c0 -5 -5 -10 -11
-10 -5 0 -7 5 -4 10 3 6 8 10 11 10 2 0 4 -4 4 -10z m105 -10 c3 -5 1 -10 -4
-10 -6 0 -11 5 -11 10 0 6 2 10 4 10 3 0 8 -4 11 -10z m-345 -6 c0 -8 -19 -13
-24 -6 -3 5 1 9 9 9 8 0 15 -2 15 -3z m350 -41 c-1 -13 -30 -48 -30 -36 0 7 5
15 11 19 8 4 7 9 -2 15 -11 7 -10 9 4 9 9 0 17 -3 17 -7z m1284 -5 c-3 -4 -11
-5 -19 -1 -21 7 -19 12 4 10 11 0 18 -5 15 -9z m-1649 -38 c-3 -5 -11 -10 -16
-10 -6 0 -7 5 -4 10 3 6 11 10 16 10 6 0 7 -4 4 -10z m826 -73 c-10 -9 -11 -8
-5 6 3 10 9 15 12 12 3 -3 0 -11 -7 -18z m1059 -8 c0 -5 -4 -9 -8 -9 -5 0 -9
7 -9 15 0 8 4 12 9 9 4 -3 8 -9 8 -15z m-1880 -24 c-6 -8 -9 -19 -5 -24 4 -7
0 -8 -10 -5 -14 6 -14 8 1 25 20 22 32 26 14 4z m1775 -28 c-8 -13 -12 -28 -8
-32 5 -5 0 -3 -11 5 -17 14 -17 15 4 32 30 24 34 23 15 -5z m-180 -25 c-3 -3
-11 0 -18 7 -9 10 -8 11 6 5 10 -3 15 -9 12 -12z m-765 -22 c-12 -8 -12 -10
-1 -10 8 0 12 -3 8 -6 -9 -9 -28 6 -22 17 4 5 12 9 18 9 7 0 6 -4 -3 -10z
m-230 -60 c0 -5 -7 -7 -15 -4 -8 4 -15 8 -15 10 0 2 7 4 15 4 8 0 15 -4 15
-10z m114 -86 c3 -8 2 -12 -4 -9 -6 3 -10 10 -10 16 0 14 7 11 14 -7z m1126
-5 c0 -6 -4 -7 -10 -4 -5 3 -10 11 -10 16 0 6 5 7 10 4 6 -3 10 -11 10 -16z
m-1845 -117 c-2 -9 -4 -18 -4 -20 -1 -2 -6 0 -11 3 -8 5 -8 11 -1 19 6 7 7 17
3 21 -4 5 -2 5 5 2 6 -4 10 -15 8 -25z m262 -54 c-3 -8 -6 -5 -6 6 -1 11 2 17
5 13 3 -3 4 -12 1 -19z m390 0 c-3 -8 -6 -5 -6 6 -1 11 2 17 5 13 3 -3 4 -12
1 -19z m570 0 c-3 -8 -6 -5 -6 6 -1 11 2 17 5 13 3 -3 4 -12 1 -19z m160 0
c-3 -8 -6 -5 -6 6 -1 11 2 17 5 13 3 -3 4 -12 1 -19z m263 13 c0 -5 18 -8 40
-6 23 2 38 -1 34 -6 -3 -5 -10 -7 -15 -3 -5 3 -16 1 -23 -5 -10 -9 -19 -6 -37
9 -13 10 -18 19 -11 20 6 0 12 -4 12 -9z"/>
<path d="M427 1404 c6 -3 10 -17 8 -32 -2 -15 -2 -21 1 -14 3 6 11 9 17 5 7
-4 6 1 -2 10 -11 14 -11 17 0 17 11 0 11 2 -1 10 -8 5 -19 9 -25 9 -5 0 -5 -3
2 -5z"/>
<path d="M1360 1390 c-8 -5 -10 -10 -5 -11 6 0 18 -2 27 -4 11 -2 15 2 11 11
-6 16 -13 17 -33 4z"/>
<path d="M2031 1393 c3 -19 -2 -34 -9 -29 -5 3 -9 -1 -9 -9 0 -22 15 -18 22 6
4 11 9 18 11 16 8 -8 -19 -57 -27 -51 -11 6 -12 -10 -2 -20 11 -10 12 -37 2
-30 -5 3 -9 0 -9 -5 0 -6 6 -11 13 -11 9 0 8 -3 -2 -9 -11 -7 -11 -9 0 -14 12
-4 12 -7 0 -18 -12 -12 -13 -12 -6 0 6 10 4 12 -5 6 -10 -6 -9 -11 6 -22 19
-14 19 -15 0 -29 -19 -13 -11 -20 18 -15 5 1 4 -5 -3 -13 -7 -9 -18 -13 -25
-10 -6 3 -3 -1 7 -9 20 -16 23 -32 5 -21 -8 5 -7 0 2 -11 9 -11 10 -16 3 -11
-7 4 -13 3 -13 -3 0 -5 5 -13 10 -16 6 -4 7 -12 3 -18 -12 -19 -14 -47 -3 -47
6 0 10 -5 10 -11 0 -5 -6 -7 -12 -3 -8 5 -7 0 2 -11 14 -17 13 -18 -4 -11 -18
6 -19 5 -4 -11 16 -19 18 -59 5 -81 -5 -7 -5 -12 0 -11 20 3 34 -2 28 -11 -3
-5 -1 -10 4 -10 17 0 13 18 -6 30 -16 10 -16 11 2 4 11 -4 30 -7 43 -7 12 1
22 -2 22 -6 0 -3 16 -6 35 -5 35 2 64 -23 47 -41 -4 -5 -1 -5 7 0 8 4 17 2 22
-6 7 -11 9 -11 9 -1 0 7 -7 15 -15 18 -8 4 -15 10 -15 16 0 5 4 6 10 3 6 -3 7
1 4 9 -4 11 -15 14 -31 11 -14 -2 -22 -1 -19 3 11 10 70 11 83 0 7 -6 14 -5
19 3 4 7 3 9 -3 6 -6 -4 -13 0 -17 8 -3 8 0 17 6 21 7 5 8 2 3 -7 -7 -12 -6
-12 7 -1 21 17 14 36 -18 51 -16 7 -22 16 -18 24 5 8 3 8 -9 -2 -9 -7 -24 -11
-32 -7 -9 3 -14 2 -11 -3 3 -5 -1 -12 -10 -15 -9 -4 -18 -5 -18 -4 -1 2 -10
17 -20 33 l-17 30 26 -30 c24 -27 26 -27 15 -5 -7 14 -19 33 -27 42 -11 12
-12 21 -4 36 8 15 8 22 -2 25 -6 3 -3 6 8 6 16 1 17 3 5 11 -8 5 -15 23 -16
39 -1 17 3 28 7 25 5 -3 9 4 9 16 0 12 -4 19 -9 15 -5 -3 -13 -1 -16 5 -4 6
-3 10 2 9 20 -3 27 2 13 11 -10 6 -11 10 -2 10 6 0 12 5 12 11 0 5 -5 7 -11 4
-6 -4 -5 3 3 14 11 18 11 23 -1 30 -10 7 -10 10 -1 16 9 6 9 10 -1 16 -11 7
-9 9 6 10 l20 0 -20 9 c-13 6 -15 9 -5 9 8 1 -1 11 -20 23 -19 12 -38 21 -42
20 -5 -1 -8 3 -8 8 0 6 -4 10 -10 10 -5 0 -9 -3 -9 -7z m239 -480 c0 -3 -7 0
-15 7 -8 6 -19 9 -25 5 -6 -4 -10 -3 -9 2 3 20 -2 25 -16 13 -9 -8 -15 -8 -15
-2 0 19 25 19 53 0 15 -11 27 -22 27 -25z m-145 -33 c3 -6 -1 -7 -9 -4 -18 7
-21 14 -7 14 6 0 13 -4 16 -10z"/>
<path d="M2090 1378 c0 -6 3 -8 7 -5 3 4 13 1 22 -6 14 -11 14 -10 2 6 -15 20
-31 22 -31 5z"/>
<path d="M426 1331 c-4 -5 3 -7 14 -4 23 6 26 13 6 13 -8 0 -17 -4 -20 -9z"/>
<path d="M1166 1322 c-3 -5 1 -9 9 -9 8 0 12 4 9 9 -3 4 -7 8 -9 8 -2 0 -6 -4
-9 -8z"/>
<path d="M430 1298 c-12 -22 -12 -22 6 -6 10 10 15 20 12 24 -4 3 -12 -5 -18
-18z"/>
<path d="M430 1265 c-7 -8 -17 -12 -24 -8 -6 3 -8 2 -3 -2 4 -5 18 -10 30 -12
16 -2 18 -1 8 6 -11 7 -11 9 0 13 8 3 11 8 8 12 -3 4 -12 0 -19 -9z"/>
<path d="M2493 1257 c-3 -6 -1 -7 6 -3 6 4 18 3 25 -3 10 -9 15 -8 19 1 6 16
-40 21 -50 5z"/>
<path d="M455 1230 c-4 -6 -12 -7 -18 -4 -7 4 -9 4 -5 -1 4 -4 2 -15 -5 -24
-10 -14 -10 -14 5 -3 9 7 18 9 20 5 3 -4 4 -3 2 3 -1 6 3 17 9 23 6 6 8 11 5
11 -4 0 -10 -5 -13 -10z"/>
<path d="M1720 1208 c0 -4 4 -8 9 -8 6 0 12 4 15 8 3 5 -1 9 -9 9 -8 0 -15 -4
-15 -9z"/>
<path d="M430 1165 c0 -8 4 -15 8 -15 5 0 9 7 9 15 0 8 -4 15 -9 15 -4 0 -8
-7 -8 -15z"/>
<path d="M2120 1130 c0 -5 5 -10 11 -10 5 0 7 5 4 10 -3 6 -8 10 -11 10 -2 0
-4 -4 -4 -10z"/>
<path d="M436 1095 c-3 -8 -1 -15 4 -15 6 0 10 7 10 15 0 8 -2 15 -4 15 -2 0
-6 -7 -10 -15z"/>
<path d="M1614 1102 c3 -5 0 -13 -6 -15 -9 -4 -10 -6 -1 -6 17 -1 25 16 12 25
-7 4 -9 3 -5 -4z"/>
<path d="M2490 1101 c0 -5 7 -15 17 -22 15 -13 15 -12 4 9 -12 23 -21 28 -21
13z"/>
<path d="M419 1068 c7 -9 9 -23 5 -30 -6 -10 -4 -11 7 0 11 10 10 15 -6 30
-17 15 -18 15 -6 0z"/>
<path d="M452 1050 c0 -14 2 -19 5 -12 2 6 2 18 0 25 -3 6 -5 1 -5 -13z"/>
<path d="M767 1049 c7 -7 15 -10 18 -7 3 3 -2 9 -12 12 -14 6 -15 5 -6 -5z"/>
<path d="M893 1040 c1 -21 10 -18 13 5 1 8 -2 15 -6 15 -5 0 -8 -9 -7 -20z"/>
<path d="M2125 1030 c-3 -5 -1 -10 4 -10 6 0 11 5 11 10 0 6 -2 10 -4 10 -3 0
-8 -4 -11 -10z"/>
<path d="M430 1005 c0 -8 4 -15 8 -15 5 0 9 7 9 15 0 8 -4 15 -9 15 -4 0 -8
-7 -8 -15z"/>
<path d="M425 969 c-3 -4 2 -6 10 -5 21 3 28 13 10 13 -9 0 -18 -4 -20 -8z"/>
<path d="M434 893 c2 -17 -3 -33 -13 -40 -14 -12 -14 -12 3 -6 14 5 17 3 11
-7 -5 -9 -4 -11 4 -6 6 4 9 12 6 17 -4 5 0 9 7 9 8 0 9 3 3 8 -6 4 -10 17 -9
30 1 12 -2 22 -7 22 -4 0 -6 -12 -5 -27z"/>
<path d="M2380 910 c-9 -6 -10 -10 -3 -10 6 0 15 5 18 10 8 12 4 12 -15 0z"/>
<path d="M1175 890 c-3 -5 -1 -10 4 -10 6 0 11 5 11 10 0 6 -2 10 -4 10 -3 0
-8 -4 -11 -10z"/>
<path d="M1150 871 c0 -6 4 -13 10 -16 6 -3 7 1 4 9 -7 18 -14 21 -14 7z"/>
<path d="M1613 855 c0 -8 4 -12 9 -9 5 3 6 10 3 15 -9 13 -12 11 -12 -6z"/>
<path d="M1747 861 c6 -7 9 -21 5 -30 -5 -13 -3 -13 12 2 10 10 16 21 12 24
-3 4 -6 3 -6 -2 0 -4 -8 -1 -17 6 -15 11 -16 11 -6 0z"/>
<path d="M1795 850 c-3 -5 -1 -10 4 -10 6 0 11 5 11 10 0 6 -2 10 -4 10 -3 0
-8 -4 -11 -10z"/>
<path d="M2088 842 c-4 -15 -2 -19 8 -15 10 4 12 0 7 -13 -4 -14 0 -12 15 6
16 20 23 23 33 13 16 -16 29 -17 29 -1 0 6 -3 8 -7 5 -3 -4 -12 -2 -20 4 -9 9
-17 8 -27 0 -11 -10 -16 -9 -24 5 -8 15 -10 14 -14 -4z"/>
<path d="M2230 840 c0 -5 5 -10 11 -10 5 0 7 5 4 10 -3 6 -8 10 -11 10 -2 0
-4 -4 -4 -10z"/>
<path d="M806 832 c-3 -5 1 -9 9 -9 8 0 12 4 9 9 -3 4 -7 8 -9 8 -2 0 -6 -4
-9 -8z"/>
<path d="M870 831 c0 -16 28 -33 35 -21 4 6 1 9 -7 8 -7 -2 -12 3 -10 10 1 6
-2 12 -8 12 -5 0 -10 -4 -10 -9z"/>
<path d="M1075 831 c-6 -11 13 -26 22 -17 4 3 1 6 -6 6 -7 0 -9 5 -6 10 3 6 4
10 1 10 -3 0 -7 -4 -11 -9z"/>
<path d="M1654 825 c-3 -8 -11 -12 -17 -8 -6 4 -7 1 -2 -7 6 -10 11 -9 22 5
11 16 17 14 15 -5 0 -3 8 -6 19 -6 24 0 24 0 -6 20 -23 15 -26 15 -31 1z"/>
<path d="M1846 824 c-5 -14 -4 -15 9 -4 17 14 19 20 6 20 -5 0 -12 -7 -15 -16z"/>
<path d="M1410 815 c0 -8 2 -15 4 -15 2 0 6 7 10 15 3 8 1 15 -4 15 -6 0 -10
-7 -10 -15z"/>
<path d="M1788 814 c9 -7 19 -9 22 -6 3 4 9 10 13 13 4 3 -6 6 -23 6 -26 0
-27 -2 -12 -13z"/>
<path d="M423 805 c0 -8 4 -12 9 -9 4 3 8 9 8 15 0 5 -4 9 -8 9 -5 0 -9 -7 -9
-15z"/>
<path d="M430 765 c0 -8 4 -15 8 -15 5 0 9 7 9 15 0 8 -4 15 -9 15 -4 0 -8 -7
-8 -15z"/>
<path d="M436 695 c-3 -8 -1 -15 4 -15 6 0 10 7 10 15 0 8 -2 15 -4 15 -2 0
-6 -7 -10 -15z"/>
<path d="M417 669 c7 -9 10 -19 6 -22 -3 -4 -1 -7 5 -7 17 0 15 16 -5 31 -16
12 -17 12 -6 -2z"/>
<path d="M434 622 c4 -7 1 -12 -6 -12 -8 0 -9 -3 -3 -8 15 -10 13 -31 -4 -41
-9 -6 -10 -11 -2 -15 6 -4 11 -2 11 4 0 6 4 9 9 6 5 -4 8 2 7 11 -2 10 2 21 8
25 8 5 7 8 -2 8 -7 0 -11 4 -7 9 3 5 0 13 -6 17 -8 4 -9 3 -5 -4z"/>
<path d="M996 593 c-6 -14 -5 -15 5 -6 7 7 10 15 7 18 -3 3 -9 -2 -12 -12z"/>
<path d="M1156 593 c-6 -14 -5 -15 5 -6 7 7 10 15 7 18 -3 3 -9 -2 -12 -12z"/>
<path d="M1236 593 c-6 -14 -5 -15 5 -6 7 7 10 15 7 18 -3 3 -9 -2 -12 -12z"/>
<path d="M1537 603 c-4 -3 -7 -11 -7 -17 0 -6 5 -5 12 2 6 6 9 14 7 17 -3 3
-9 2 -12 -2z"/>
<path d="M1633 593 c0 -7 4 -13 8 -13 4 0 9 6 12 13 3 8 0 14 -7 14 -7 0 -13
-6 -13 -14z"/>
<path d="M1956 593 c-6 -14 -5 -15 5 -6 7 7 10 15 7 18 -3 3 -9 -2 -12 -12z"/>
<path d="M2116 593 c-6 -14 -5 -15 5 -6 7 7 10 15 7 18 -3 3 -9 -2 -12 -12z"/>
<path d="M2350 590 c0 -5 5 -10 11 -10 5 0 7 5 4 10 -3 6 -8 10 -11 10 -2 0
-4 -4 -4 -10z"/>
<path d="M2400 570 c0 -5 5 -10 10 -10 6 0 10 5 10 10 0 6 -4 10 -10 10 -5 0
-10 -4 -10 -10z"/>
<path d="M425 520 c-14 -16 -16 -21 -5 -18 9 2 15 -4 15 -14 0 -9 4 -20 9 -25
5 -4 7 -3 3 2 -3 6 -2 17 3 25 7 12 12 11 30 -5 21 -19 21 -19 14 1 -7 17 -6
17 9 5 9 -7 17 -10 17 -7 0 4 9 2 20 -4 16 -9 18 -8 14 5 -5 11 -2 13 10 9 9
-3 13 -11 9 -18 -4 -8 -2 -8 7 1 7 6 19 9 26 6 8 -3 14 0 14 7 0 6 5 8 10 5 6
-4 8 -10 6 -14 -3 -4 5 -8 17 -8 15 -2 18 0 8 6 -10 7 -8 12 10 25 13 9 18 16
12 16 -7 0 -15 -5 -19 -11 -4 -8 -9 -7 -15 2 -5 8 -9 9 -9 3 0 -14 -42 -13
-52 1 -5 6 -8 5 -8 -2 0 -7 -5 -13 -11 -13 -5 0 -8 4 -4 10 3 5 -7 3 -22 -5
-24 -13 -29 -12 -44 1 -10 9 -22 13 -28 10 -5 -4 -14 1 -18 9 -8 14 -12 13
-28 -5z m25 -10 c0 -5 -2 -10 -4 -10 -3 0 -8 5 -11 10 -3 6 -1 10 4 10 6 0 11
-4 11 -10z"/>
<path d="M2403 528 c1 -9 -11 -13 -38 -12 -22 1 -35 0 -29 -3 7 -2 10 -14 8
-26 -4 -21 -4 -21 5 -2 6 13 10 15 10 6 1 -11 5 -10 16 5 11 13 13 14 9 3 -3
-11 2 -18 15 -22 12 -3 19 -2 16 3 -3 4 2 13 10 20 8 7 15 20 15 29 0 11 -4 8
-13 -8 -6 -14 -19 -27 -27 -29 -12 -4 -11 -1 3 15 19 22 22 33 7 33 -5 0 -9
-6 -7 -12z"/>
<path d="M692 504 c-7 -8 -11 -20 -9 -27 4 -8 6 -8 6 2 1 11 4 11 16 1 8 -7
15 -9 15 -5 0 4 6 2 14 -5 13 -10 13 -8 3 13 -6 14 -15 23 -18 21 -4 -2 -9 0
-11 5 -1 5 -9 3 -16 -5z"/>
<path d="M741 515 c0 -5 4 -17 9 -25 5 -8 10 -11 10 -7 0 4 9 3 20 -3 17 -9
19 -8 13 7 -6 16 -5 17 12 3 11 -9 16 -10 11 -2 -4 6 -3 12 2 12 5 0 13 -10
19 -22 l10 -23 7 23 c7 21 9 22 20 6 11 -15 13 -15 13 0 0 16 -6 19 -39 19
-10 0 -18 3 -18 7 0 10 -26 7 -36 -3 -12 -11 -42 -8 -47 6 -3 6 -6 8 -6 2z"/>
<path d="M905 499 c-4 -11 -4 -23 -1 -26 3 -4 6 2 6 13 1 18 1 18 17 -1 14
-18 15 -18 9 -1 -5 14 -2 17 9 12 8 -3 21 -9 29 -12 13 -5 32 24 21 34 -3 3
-5 0 -5 -8 0 -10 -4 -10 -17 1 -11 10 -14 10 -9 2 4 -7 2 -13 -3 -13 -6 0 -11
4 -11 8 0 18 -39 10 -45 -9z"/>
<path d="M1080 514 c0 -7 -13 -11 -34 -9 -23 3 -36 -1 -40 -11 -3 -8 -1 -14 4
-14 6 0 10 6 10 13 0 8 3 8 8 2 10 -15 52 -16 52 -2 1 7 7 1 16 -13 l15 -25
-7 25 c-6 22 -5 23 9 12 12 -10 17 -10 23 -1 5 9 10 7 15 -7 7 -17 8 -17 8 -1
1 10 6 15 11 12 6 -4 8 -11 5 -16 -4 -5 -1 -9 4 -9 6 0 11 5 11 12 0 9 3 9 12
0 7 -7 17 -12 23 -12 5 0 2 5 -8 11 -17 10 -15 29 4 29 6 0 7 -5 3 -12 -4 -7
-3 -8 5 -4 6 4 9 12 6 17 -7 10 -33 8 -52 -4 -8 -5 -13 -3 -13 5 0 8 -3 9 -8
3 -8 -12 -22 -13 -39 -2 -6 4 -15 2 -19 -4 -4 -8 -9 -7 -15 2 -5 9 -9 10 -9 3z"/>
<path d="M1287 507 c4 -6 -2 -8 -15 -5 -20 5 -40 -17 -27 -30 3 -3 5 0 5 8 0
10 4 10 17 -1 14 -12 16 -12 8 0 -6 11 -4 13 9 8 10 -4 15 -3 11 3 -3 6 -1 10
4 10 10 0 15 -14 12 -32 -3 -18 18 -6 24 13 7 20 7 20 22 2 8 -10 12 -12 8 -5
-7 13 10 17 18 5 2 -5 2 -2 1 4 -2 7 5 17 14 22 9 6 12 11 6 11 -6 0 -14 -3
-18 -7 -9 -10 -76 -12 -76 -3 0 4 -7 7 -15 7 -8 0 -11 -5 -8 -10z"/>
<path d="M1414 506 c-19 -20 2 -49 26 -36 11 6 17 17 14 25 -4 8 -10 13 -14
10 -5 -3 -10 -1 -12 4 -1 5 -8 3 -14 -3z m36 -21 c0 -2 -7 -5 -15 -9 -9 -3
-15 0 -15 9 0 9 6 12 15 9 8 -4 15 -7 15 -9z"/>
<path d="M1460 513 c0 -6 7 -19 16 -27 17 -18 28 -21 19 -6 -4 6 3 8 17 6 13
-2 22 -10 20 -17 -3 -10 2 -9 15 3 18 15 30 16 68 3 14 -5 16 -4 6 3 -10 7 -8
13 10 26 13 9 19 16 13 16 -5 0 -15 -5 -22 -12 -7 -7 -12 -8 -12 -2 0 16 -34
13 -46 -4 -7 -10 -13 -11 -18 -4 -3 5 -20 8 -37 5 -20 -3 -35 0 -40 9 -6 9 -9
9 -9 1z m150 -18 c0 -2 -9 -3 -19 -2 -11 0 -18 5 -15 9 4 6 34 0 34 -7z"/>
<path d="M1652 504 c-7 -8 -11 -20 -9 -27 4 -8 6 -8 6 2 1 11 4 11 16 1 8 -7
15 -9 15 -5 0 4 6 2 14 -5 13 -10 13 -8 3 13 -6 14 -15 23 -18 21 -4 -2 -9 0
-11 5 -1 5 -9 3 -16 -5z"/>
<path d="M1700 515 c0 -5 4 -16 9 -24 7 -11 13 -11 32 0 29 15 31 15 41 -8 7
-16 8 -16 5 2 -2 16 -9 19 -37 17 -19 -1 -37 3 -42 10 -4 7 -8 9 -8 3z"/>
<path d="M1809 513 c0 -5 -2 -16 -4 -26 -3 -18 -3 -18 16 -1 19 17 27 6 9 -12
-7 -7 -6 -11 4 -11 8 0 13 3 11 7 -2 3 6 12 17 19 18 11 20 11 16 -1 -4 -9 2
-14 15 -16 17 -1 18 1 7 8 -8 5 -12 12 -8 15 3 4 12 0 19 -8 12 -12 15 -12 26
2 11 14 12 14 13 -4 0 -16 2 -17 10 -5 11 18 -5 30 -33 24 -11 -2 -25 0 -31 4
-6 3 -20 8 -31 9 -15 2 -16 1 -6 -6 8 -5 9 -11 3 -15 -5 -3 -15 1 -22 9 -13
16 -30 20 -31 8z"/>
<path d="M1977 514 c9 -4 10 -11 3 -25 -7 -13 -7 -19 0 -19 5 0 10 8 10 18 1
16 1 16 11 0 13 -22 34 -14 36 15 2 21 1 21 -13 -3 -11 -19 -14 -20 -12 -6 2
13 -4 20 -22 22 -14 1 -19 0 -13 -2z"/>
<path d="M2110 510 c0 -8 -9 -11 -29 -7 -25 5 -29 3 -28 -13 1 -13 5 -16 13
-9 6 5 19 7 28 3 9 -3 16 -1 16 5 0 6 5 11 11 11 5 0 7 -4 4 -10 -3 -5 -1 -10
4 -10 6 0 11 6 11 13 0 6 5 4 11 -6 8 -13 14 -15 23 -8 14 12 56 11 56 -1 0
-4 5 -8 11 -8 8 0 8 4 1 13 -6 6 -10 16 -10 22 0 5 -6 11 -14 13 -10 3 -10 2
1 -6 17 -12 0 -24 -19 -12 -9 6 -19 3 -28 -8 -12 -16 -13 -16 -9 0 4 11 0 15
-11 13 -9 -1 -23 2 -29 8 -9 6 -13 6 -13 -3z"/>
<path d="M2289 513 c0 -5 -2 -16 -4 -26 -3 -17 -2 -17 14 -3 10 9 22 13 26 9
5 -5 3 0 -4 10 -14 18 -30 23 -32 10z"/>
<path d="M2250 503 c0 -4 5 -15 10 -23 8 -13 10 -13 10 2 0 9 -4 20 -10 23 -5
3 -10 3 -10 -2z"/>
<path d="M1748 473 c7 -3 16 -2 19 1 4 3 -2 6 -13 5 -11 0 -14 -3 -6 -6z"/>
<path d="M2305 470 c-3 -6 1 -7 9 -4 18 7 21 14 7 14 -6 0 -13 -4 -16 -10z"/>
<path d="M509 425 c-1 -3 -2 -8 -3 -12 -4 -23 -18 -34 -31 -23 -10 8 -19 8
-33 1 -11 -6 -21 -9 -23 -6 -2 2 -5 -8 -5 -21 -1 -13 2 -24 7 -24 5 0 9 -5 9
-11 0 -5 -4 -8 -9 -5 -5 3 -11 -1 -14 -9 -4 -10 -1 -12 10 -8 13 5 12 1 -3
-23 -14 -21 -15 -26 -3 -17 13 11 15 5 14 -45 0 -31 -4 -63 -8 -69 -5 -7 -4
-13 1 -13 5 0 9 -7 9 -15 0 -11 -4 -12 -14 -3 -11 8 -12 7 -7 -6 3 -9 11 -16
16 -16 6 0 4 -8 -3 -17 -8 -9 -9 -14 -3 -10 12 7 13 -30 1 -49 -3 -6 -4 -14 0
-18 3 -3 456 -6 1005 -6 l998 0 -1 28 c-3 44 0 54 14 47 6 -4 1 3 -13 16 -23
20 -23 21 -4 15 20 -6 22 -4 18 29 -2 25 0 34 9 29 9 -5 8 -3 0 7 -16 16 -17
33 -1 23 7 -4 8 -3 4 4 -4 6 -14 8 -23 5 -10 -4 -14 -2 -10 5 4 6 2 12 -5 15
-7 2 -2 2 12 0 22 -3 23 -2 9 9 -9 7 -14 19 -11 27 3 10 0 11 -9 5 -11 -6 -12
-5 -2 7 11 14 13 19 13 40 0 5 5 7 12 3 7 -5 8 -3 4 5 -5 7 -18 17 -30 22 -18
8 -18 9 6 4 15 -3 30 0 33 5 4 6 3 10 -2 9 -19 -3 -23 2 -13 21 6 11 7 19 3
18 -4 -1 -19 4 -33 11 l-25 12 25 -21 25 -21 -27 12 c-16 7 -28 17 -28 22 0 6
-3 7 -6 4 -4 -3 -16 -2 -28 4 -17 9 -17 7 4 -11 22 -18 22 -20 3 -11 -12 6
-29 8 -37 5 -9 -3 -16 -1 -16 5 0 6 -5 11 -11 11 -6 0 -8 -8 -5 -17 4 -11 -2
-8 -13 7 -11 14 -23 21 -27 17 -4 -4 -2 -7 4 -7 7 0 12 -4 12 -8 0 -5 -7 -9
-15 -9 -8 0 -15 5 -15 11 0 6 -4 5 -9 -3 -11 -16 -34 -5 -24 12 5 8 2 8 -9 0
-8 -7 -18 -10 -22 -6 -4 4 -5 1 -3 -7 2 -8 2 -12 -1 -7 -2 4 -13 12 -25 19
-19 10 -20 9 -9 -4 10 -13 10 -18 1 -24 -7 -4 -9 -3 -6 3 4 6 0 13 -7 16 -8 3
-17 1 -20 -6 -3 -9 -8 -8 -15 3 -10 13 -13 12 -28 -5 -13 -16 -15 -17 -10 -2
8 21 -1 22 -23 2 -14 -13 -17 -13 -17 0 0 8 5 11 10 8 6 -4 7 -1 3 6 -6 9 -12
8 -26 -4 -12 -11 -20 -13 -25 -6 -3 6 -11 11 -17 11 -6 0 -5 -7 3 -17 7 -10 1
-7 -14 7 -25 21 -27 22 -21 5 7 -18 6 -19 -11 -5 -11 9 -16 10 -11 3 4 -7 2
-13 -3 -13 -6 0 -11 5 -11 10 0 6 -5 10 -11 10 -5 0 -8 -4 -5 -8 2 -4 -4 -8
-14 -8 -10 0 -17 3 -15 6 2 3 -6 7 -18 7 -13 1 -17 -1 -10 -5 7 -5 -14 -8 -46
-8 -33 0 -57 4 -55 8 3 5 1 8 -5 8 -5 0 -12 -8 -14 -17 -4 -17 -5 -17 -6 0 -1
22 -10 22 -27 0 -13 -17 -14 -17 -7 1 4 13 3 17 -4 13 -6 -4 -14 -1 -16 5 -3
8 -6 6 -6 -4 -1 -10 -6 -18 -12 -18 -5 0 -7 6 -3 13 5 7 0 6 -11 -3 -11 -9
-16 -10 -11 -2 4 6 3 12 -3 12 -5 0 -12 -8 -14 -17 -4 -17 -5 -17 -6 0 0 9 -6
17 -12 17 -5 0 -7 -6 -3 -13 5 -8 2 -8 -9 2 -9 7 -17 10 -17 5 0 -5 -5 -2 -10
6 -8 12 -10 12 -10 -5 0 -15 -2 -17 -9 -6 -7 11 -9 11 -14 0 -4 -10 -6 -10 -6
-1 -1 6 -6 12 -12 12 -5 0 -7 -5 -3 -12 5 -7 3 -8 -7 -2 -8 4 -23 10 -34 11
-15 2 -16 1 -6 -6 9 -6 1 -8 -22 -7 -19 0 -33 4 -30 9 2 4 -1 7 -6 7 -6 0 -11
-4 -11 -10 0 -5 -5 -10 -11 -10 -5 0 -8 4 -4 9 3 5 0 13 -6 17 -8 4 -9 3 -5
-5 5 -8 0 -10 -20 -7 -17 3 -31 0 -36 -7 -6 -9 -8 -8 -8 2 0 11 -4 9 -15 -5
-13 -18 -14 -18 -9 6 4 17 3 21 -3 12 -12 -17 -56 -25 -46 -9 4 7 -2 5 -12 -3
-11 -9 -16 -10 -11 -2 4 6 2 12 -3 12 -6 0 -11 -4 -11 -10 0 -5 -5 -10 -11
-10 -5 0 -7 6 -3 13 5 7 0 6 -11 -3 -17 -14 -18 -13 -12 3 10 25 -2 21 -13 -5
-7 -20 -9 -20 -9 -4 -1 16 -3 17 -18 5 -11 -10 -14 -10 -9 -1 4 6 2 12 -3 12
-6 0 -11 -6 -11 -12 0 -9 -4 -8 -10 2 -7 10 -10 11 -10 2 0 -12 -5 -12 -68 2
-13 3 -20 1 -17 -5 4 -5 1 -9 -4 -9 -6 0 -11 4 -11 9 0 5 -7 12 -16 15 -13 5
-14 3 -6 -7 8 -10 6 -13 -8 -13 -10 0 -16 4 -14 8 3 4 0 8 -5 8 -6 0 -11 -4
-11 -10 0 -5 -5 -10 -11 -10 -5 0 -7 5 -4 10 3 6 1 10 -4 10 -6 0 -11 -6 -11
-12 0 -9 -3 -9 -8 -3 -6 9 -27 12 -34 5 -8 -7 -47 -6 -42 1 3 5 1 9 -5 9 -5 0
-12 -8 -14 -17 -4 -17 -5 -17 -6 0 -1 19 -21 24 -21 5 0 -10 -3 -9 -9 1 -7 11
-9 11 -14 0 -4 -9 -6 -7 -7 6 l-1 20 -9 -20 c-5 -12 -9 -14 -9 -6 -1 11 -5 10
-17 -5 -8 -10 -13 -14 -10 -8 3 7 -1 14 -9 18 -8 3 -15 1 -15 -5 0 -6 -5 -7
-10 -4 -6 4 -7 11 -4 17 4 7 2 8 -5 4 -6 -4 -9 -11 -7 -15 7 -11 -41 -7 -51 3
-5 5 -2 6 6 1 9 -5 12 -4 7 3 -8 13 -15 15 -17 7z m785 -23 c3 -5 -1 -9 -9 -9
-8 0 -12 4 -9 9 3 4 7 8 9 8 2 0 6 -4 9 -8z m1131 -233 c-4 -5 -14 -8 -23 -8
-15 1 -15 2 1 6 9 2 14 9 11 15 -4 7 -2 8 5 4 6 -4 9 -12 6 -17z m2 -34 c0 -8
-4 -15 -9 -15 -10 0 -11 14 -1 23 9 10 10 9 10 -8z"/>
<path d="M435 410 c-3 -5 -1 -10 4 -10 6 0 11 5 11 10 0 6 -2 10 -4 10 -3 0
-8 -4 -11 -10z"/>
<path d="M471 404 c6 -7 16 -11 21 -8 11 7 3 17 -18 20 -12 2 -13 -1 -3 -12z"/>
<path d="M2423 283 c0 -9 4 -10 14 -2 7 6 13 12 13 14 0 1 -6 2 -13 2 -8 0
-14 -6 -14 -14z"/>
<path d="M407 185 c-4 -8 -3 -16 1 -19 4 -3 9 4 9 15 2 23 -3 25 -10 4z"/>
<path d="M405 51 c-3 -5 -2 -12 3 -15 5 -3 9 1 9 9 0 17 -3 19 -12 6z"/>
<path d="M2423 44 c0 -7 6 -10 14 -7 7 3 13 8 13 12 0 4 -6 8 -13 8 -8 0 -14
-6 -14 -13z"/>
</g>
</svg>
